<?xml version="1.0" encoding="UTF-8" standalone="no"?>
<svg
   xmlns:dc="http://purl.org/dc/elements/1.1/"
   xmlns:cc="http://creativecommons.org/ns#"
   xmlns:rdf="http://www.w3.org/1999/02/22-rdf-syntax-ns#"
   xmlns:svg="http://www.w3.org/2000/svg"
   xmlns="http://www.w3.org/2000/svg"
   xmlns:sodipodi="http://sodipodi.sourceforge.net/DTD/sodipodi-0.dtd"
   xmlns:inkscape="http://www.inkscape.org/namespaces/inkscape"
   version="1.1"
   id="svg2"
   xml:space="preserve"
   width="3289.3867"
   height="1829.9867"
   viewBox="0 0 3289.3867 1829.9867"
   sodipodi:docname="ShedHeads_Sign1.eps"><metadata
     id="metadata8"><rdf:RDF><cc:Work
         rdf:about=""><dc:format>image/svg+xml</dc:format><dc:type
           rdf:resource="http://purl.org/dc/dcmitype/StillImage" /></cc:Work></rdf:RDF></metadata><defs
     id="defs6" /><sodipodi:namedview
     pagecolor="#ffffff"
     bordercolor="#666666"
     borderopacity="1"
     objecttolerance="10"
     gridtolerance="10"
     guidetolerance="10"
     inkscape:pageopacity="0"
     inkscape:pageshadow="2"
     inkscape:window-width="640"
     inkscape:window-height="480"
     id="namedview4" /><g
     id="g10"
     inkscape:groupmode="layer"
     inkscape:label="ink_ext_XXXXXX"
     transform="matrix(1.3333333,0,0,-1.3333333,0,1829.9867)"><g
       id="g12"
       transform="scale(0.1)"><path
         d="m 20.5273,5778.62 c 0,396.72 98.5467,701.12 295.6177,913.16 197.089,212.05 479.785,318.08 848.195,318.08 368.35,0 648.32,-106.03 839.84,-318.08 191.51,-212.04 287.29,-516.44 287.29,-913.16 v -33.25 c 0,-68.53 -55.55,-124.08 -124.09,-124.08 h -480.32 c -68.52,0 -124.08,55.55 -124.08,124.08 v 81.14 c 0,321.47 -128.84,482.21 -386.47,482.21 -265.971,0 -394.615,-171.42 -386.061,-514.16 3.078,-123.14 32.989,-243.29 84.621,-355.13 56.055,-121.42 128.59,-230.95 217.67,-328.64 89.38,-98.1 186.32,-196.54 290.74,-295.19 104.42,-98.71 210.55,-198.95 318.29,-300.75 107.73,-101.87 206.17,-212.59 295.2,-332.24 89.03,-119.65 161.48,-260.95 217.44,-423.9 55.88,-162.91 83.89,-340.11 83.89,-531.51 0,-396.7 -98.06,-701.1 -294.12,-913.1 C 1808.06,2102 1525.78,1996 1157.37,1996 788.918,1996 503.938,2102 302.355,2314.1 100.801,2526.1 0,2830.5 0,3227.2 v 176.9 c 0,68.6 55.5469,124.1 124.082,124.1 h 500.832 c 68.535,0 124.082,-55.5 124.082,-124.1 v -224.8 c 0,-316.9 125.957,-476.5 377.974,-478.8 h 3.21 c 265.7,0 398.59,159.6 398.59,478.8 0,182.4 -51.88,354 -155.6,514.8 -103.78,160.73 -229.74,306.07 -377.924,436.05 L 550.645,4540.54 C 402.395,4684.2 277.031,4862.04 174.434,5074.08 71.8359,5286.13 20.5273,5520.94 20.5273,5778.62"
         style="fill:#231f20;fill-opacity:1;fill-rule:nonzero;stroke:none"
         id="path14" /><path
         d="M 3505.6,4026.57 V 2174.8 c 0,-68.5 -55.56,-124.1 -124.09,-124.1 h -521.36 c -68.53,0 -124.07,55.6 -124.07,124.1 v 4656.24 c 0,68.52 55.54,124.08 124.07,124.08 h 521.36 c 68.53,0 124.09,-55.56 124.09,-124.08 V 4975.85 c 0,-68.53 55.54,-124.08 124.08,-124.08 h 627.38 c 68.53,0 124.08,55.55 124.08,124.08 v 1855.19 c 0,68.52 55.55,124.08 124.09,124.08 h 538.44 c 68.53,0 124.08,-55.56 124.08,-124.08 V 2174.8 c 0,-68.5 -55.55,-124.1 -124.08,-124.1 h -538.44 c -68.54,0 -124.09,55.6 -124.09,124.1 v 1851.77 c 0,68.53 -55.55,124.09 -124.08,124.09 h -627.38 c -68.54,0 -124.08,-55.56 -124.08,-124.09"
         style="fill:#231f20;fill-opacity:1;fill-rule:nonzero;stroke:none"
         id="path16" /><path
         d="M 6494.75,6129.92 V 5010.05 c 0,-68.52 55.55,-124.08 124.08,-124.08 h 808.65 c 68.53,0 124.08,-55.55 124.08,-124.07 v -449.53 c 0,-68.53 -55.55,-124.09 -124.08,-124.09 h -808.65 c -68.53,0 -124.08,-55.54 -124.08,-124.08 V 2875.9 c 0,-68.5 55.55,-124.1 124.08,-124.1 h 1082.25 c 68.52,0 124.08,-55.5 124.08,-124.1 v -452.9 c 0,-68.5 -55.56,-124.1 -124.08,-124.1 H 5849.31 c -68.53,0 -124.08,55.6 -124.08,124.1 v 4656.24 c 0,68.52 55.55,124.08 124.08,124.08 h 1851.77 c 68.52,0 124.08,-55.56 124.08,-124.08 v -452.95 c 0,-68.53 -55.56,-124.08 -124.08,-124.08 H 6618.83 c -68.53,0 -124.08,-55.55 -124.08,-124.09"
         style="fill:#231f20;fill-opacity:1;fill-rule:nonzero;stroke:none"
         id="path18" /><path
         d="m 9504.42,6254.01 h -310.28 c -68.52,0 -124.08,-55.55 -124.08,-124.09 V 2875.9 c 0,-68.5 55.56,-124.1 124.08,-124.1 h 310.28 c 262.16,0 393.31,158.5 393.31,475.4 v 2551.42 c 0,316.88 -131.15,475.39 -393.31,475.39 z M 8300.54,2174.8 v 4656.24 c 0,68.52 55.55,124.08 124.08,124.08 h 1093.47 c 766.11,0 1149.11,-404.74 1149.11,-1214.13 V 3261.4 c 0,-807.1 -383,-1210.7 -1149.11,-1210.7 H 8424.62 c -68.53,0 -124.08,55.6 -124.08,124.1"
         style="fill:#231f20;fill-opacity:1;fill-rule:nonzero;stroke:none"
         id="path20" /><path
         d="M 11992.1,4026.57 V 2174.8 c 0,-68.5 -55.6,-124.1 -124.1,-124.1 h -521.3 c -68.6,0 -124.1,55.6 -124.1,124.1 v 4656.24 c 0,68.52 55.5,124.08 124.1,124.08 h 521.3 c 68.5,0 124.1,-55.56 124.1,-124.08 V 4975.85 c 0,-68.53 55.5,-124.08 124.1,-124.08 h 627.4 c 68.5,0 124,55.55 124,124.08 v 1855.19 c 0,68.52 55.6,124.08 124.1,124.08 h 538.5 c 68.5,0 124.1,-55.56 124.1,-124.08 V 2174.8 c 0,-68.5 -55.6,-124.1 -124.1,-124.1 h -538.5 c -68.5,0 -124.1,55.6 -124.1,124.1 v 1851.77 c 0,68.53 -55.5,124.09 -124,124.09 h -627.4 c -68.6,0 -124.1,-55.56 -124.1,-124.09"
         style="fill:#ed127c;fill-opacity:1;fill-rule:nonzero;stroke:none"
         id="path22" /><path
         d="M 14981.3,6129.92 V 5010.05 c 0,-68.52 55.5,-124.08 124.1,-124.08 h 808.6 c 68.5,0 124.1,-55.55 124.1,-124.07 v -449.53 c 0,-68.53 -55.6,-124.09 -124.1,-124.09 h -808.6 c -68.6,0 -124.1,-55.54 -124.1,-124.08 V 2875.9 c 0,-68.5 55.5,-124.1 124.1,-124.1 h 1082.2 c 68.5,0 124.1,-55.5 124.1,-124.1 v -452.9 c 0,-68.5 -55.6,-124.1 -124.1,-124.1 h -1851.8 c -68.5,0 -124.1,55.6 -124.1,124.1 v 4656.24 c 0,68.52 55.6,124.08 124.1,124.08 h 1851.8 c 68.5,0 124.1,-55.56 124.1,-124.08 v -452.95 c 0,-68.53 -55.6,-124.08 -124.1,-124.08 h -1082.2 c -68.6,0 -124.1,-55.55 -124.1,-124.09"
         style="fill:#ed127c;fill-opacity:1;fill-rule:nonzero;stroke:none"
         id="path24" /><path
         d="m 17863.9,5877.41 -318.1,-2128.12 c -11.2,-74.99 46.8,-142.39 122.7,-142.39 h 457.8 c 75.8,0 133.9,67.4 122.7,142.46 l -319.6,2128.07 c -5.6,37.62 -59.8,37.6 -65.5,-0.02 z m 649.2,972.25 706.9,-4656.26 c 11.4,-75.1 -46.7,-142.7 -122.7,-142.7 h -486.5 c -61.4,0 -113.6,45 -122.7,105.7 l -101.7,677.9 c -9.1,60.7 -61.3,105.6 -122.7,105.6 h -732.1 c -61.4,0 -113.6,-44.9 -122.7,-105.7 l -101.3,-677.7 c -9.1,-60.8 -61.3,-105.8 -122.7,-105.8 h -455.4 c -75.9,0 -134,67.6 -122.7,142.7 l 704.6,4656.2 c 9.2,60.68 61.3,105.52 122.7,105.52 h 956.3 c 61.3,0 113.5,-44.82 122.7,-105.46"
         style="fill:#ed127c;fill-opacity:1;fill-rule:nonzero;stroke:none"
         id="path26" /><path
         d="m 20839.9,6254.01 h -310.3 c -68.5,0 -124.1,-55.55 -124.1,-124.09 V 2875.9 c 0,-68.5 55.6,-124.1 124.1,-124.1 h 310.3 c 262.1,0 393.3,158.5 393.3,475.4 v 2551.42 c 0,316.88 -131.2,475.39 -393.3,475.39 z M 19636,2174.8 v 4656.24 c 0,68.52 55.6,124.08 124.1,124.08 h 1093.4 c 766.1,0 1149.2,-404.74 1149.2,-1214.13 V 3261.4 c 0,-807.1 -383.1,-1210.7 -1149.2,-1210.7 h -1093.4 c -68.5,0 -124.1,55.6 -124.1,124.1"
         style="fill:#ed127c;fill-opacity:1;fill-rule:nonzero;stroke:none"
         id="path28" /><path
         d="m 22392.6,5778.62 c 0,396.72 98.5,701.12 295.6,913.16 197,212.05 479.8,318.08 848.1,318.08 368.4,0 648.4,-106.03 839.9,-318.08 191.6,-212.04 287.3,-516.44 287.3,-913.16 v -33.25 c 0,-68.53 -55.6,-124.08 -124.1,-124.08 h -480.3 c -68.5,0 -124.1,55.55 -124.1,124.08 v 81.14 c 0,321.47 -128.8,482.21 -386.5,482.21 -266.1,0 -394.8,-171.65 -386,-514.83 3.1,-123.2 33.2,-243.41 84.9,-355.25 56.1,-121.1 128.5,-230.38 217.3,-327.85 89.4,-98.1 186.4,-196.54 290.9,-295.19 104.3,-98.71 210.5,-198.95 318.2,-300.75 107.7,-101.87 206.2,-212.59 295.2,-332.24 89.1,-119.65 161.5,-260.95 217.4,-423.9 55.9,-162.91 84,-340.11 84,-531.51 0,-396.7 -98.1,-701.1 -294.2,-913.1 -196.1,-212.1 -478.3,-318.1 -846.8,-318.1 -368.4,0 -653.4,106 -855,318.1 -201.5,212 -302.4,516.4 -302.4,913.1 v 176.9 c 0,68.6 55.6,124.1 124.1,124.1 h 500.9 c 68.5,0 124,-55.5 124,-124.1 v -224.8 c 0,-316.9 126,-476.5 378,-478.8 h 3.2 c 265.7,0 398.6,159.6 398.6,478.8 0,182.4 -51.9,354 -155.6,514.8 -103.8,160.73 -229.7,306.07 -377.9,436.05 l -444.7,410.39 c -148.2,143.66 -273.5,321.5 -376.1,533.54 -102.6,212.05 -153.9,446.86 -153.9,704.54"
         style="fill:#ed127c;fill-opacity:1;fill-rule:nonzero;stroke:none"
         id="path30" /><path
         d="m 12450,9844.91 c -51.5,-0.37 -93.9,-43.26 -93.5,-94.72 0.3,-51.84 42.5,-93.63 94.5,-93.55 51.7,0.08 93.9,42.69 93.4,94.44 -0.4,51.94 -42.9,94.2 -94.4,93.83"
         style="fill:#ed127c;fill-opacity:1;fill-rule:nonzero;stroke:none"
         id="path32" /><path
         d="m 11798.4,9388.55 c -64,77.25 -147.9,112.36 -237,113.22 -100.5,-1.59 -178.7,-34.03 -244.1,-95.06 -58.3,-54.46 -94.3,-121.78 -104.5,-201.96 -7.7,-60.58 0.6,-118.73 28.6,-172.8 51.2,-99.06 134.5,-153.51 244.3,-165.85 86.2,-9.68 165.5,12.77 235.1,63.76 99.9,73.15 150.1,171.92 142,296.93 -3.9,60.35 -25.7,115.06 -64.4,161.76"
         style="fill:#ed127c;fill-opacity:1;fill-rule:nonzero;stroke:none"
         id="path34" /><path
         d="m 13709.7,11377.1 c 0,-13.3 -1.4,-26.2 -9.9,-37.1 -11.7,-15.1 -27.5,-21.4 -46.1,-17.8 -18.7,3.6 -30.8,15.7 -36,34 -1.7,6.3 -2,13.2 -2,19.9 -0.1,143.8 -0.1,478.1 -0.1,622 0,3.9 0,7.9 0,12.7 -21.4,0 -41.4,0 -62.4,0 0,-4.4 0,-8.4 0,-12.3 0,-144.5 0.1,-479.5 0,-624 0,-26.9 -11,-43.7 -33.6,-51.2 -25.8,-8.6 -55.9,10.5 -58.9,37.5 -0.7,6 -0.7,12 -0.7,18.1 0,142.5 0,475.4 0,618 0,4.3 0,8.6 0,13.6 -21.1,0 -41.3,0 -63,0 0,-4.1 0,-8.4 0,-12.7 0,-143.8 0,-478.1 0.1,-622 0.1,-17.6 -3.5,-33 -18,-44.6 -26.3,-21 -66.8,-6.7 -73.6,26.3 -1.3,6.2 -1.7,12.7 -1.7,19 -0.1,143.8 0,478.1 0,622 0,3.9 0,7.8 0,12.3 -21,0 -41,0 -62.4,0 0,-3.9 0,-7.8 0,-11.7 0,-144.8 0,-480.1 0,-625 0,-26.3 -11.2,-43.3 -33.2,-50.6 -25.8,-8.6 -54.9,8.7 -59.5,35.6 -1.1,6.2 -1.3,12.7 -1.4,19 0,142.8 0,476.1 0,619 0,4.3 0,8.6 0,13.5 -21,0 -41.3,0 -62.6,0 0,-4.3 0,-8.2 0,-12.1 0,-145.2 -0.1,-480.8 0.1,-626 0,-22 -8.2,-38.4 -28.7,-47.4 -28.6,-12.6 -61.7,7.5 -64.1,38.6 -0.4,4.7 -0.3,9.4 -0.3,14.1 0,143.2 0,476.8 0,620 0,4 0,7.9 0,12.7 -20.8,0 -41,0 -62.6,0 0,-4.3 0,-8.5 0,-12.7 0,-143.9 0,-478.1 0.1,-622 0,-17.5 -3.6,-33.4 -18.4,-44.6 -14.3,-10.7 -30,-13.1 -46.4,-6.2 -16.4,6.8 -26.2,19.4 -28.4,37.2 -0.6,5 -0.5,10.1 -0.5,15.1 0,143.2 0,476.8 0,620 0,4.3 0,8.6 0,13.4 -21.2,0 -41.5,0 -62.9,0 0,-4.2 0,-8.1 0,-12.1 0,-145.5 0.1,-481.5 0,-627 0,-24.2 -11.8,-41.3 -33.3,-48.3 -26.4,-8.6 -56.2,10.5 -59.3,38.2 -0.6,5.7 -0.6,11.4 -0.6,17.1 0,142.8 0,476.1 0,619 0,4.2 0,8.5 0,13.2 -21.3,0 -41.3,0 -63,0 0,-4.3 0,-8.5 0,-12.7 0,-144.5 -0.1,-479.4 0.1,-624 0.1,-21.6 -6.6,-38.8 -27.2,-48.3 -27.6,-12.9 -59.1,3.2 -64.8,33.3 -1.1,5.5 -1.3,11.3 -1.3,17 0,143.8 0,478.1 0,622 0,4 0,7.9 0,12.5 -20.9,0 -41.2,0 -62.4,0 0,-4.2 0,-8.2 0,-12.1 0,-144.8 0,-480.1 0,-625 0,-25.1 -11.1,-42.2 -31.8,-49.6 -26.7,-9.5 -56.2,7.7 -61,35.6 -1,5.9 -1.2,12 -1.2,18 -0.1,143.2 -0.1,476.8 -0.1,620 0,4.3 0,8.5 0,13.3 -21.1,0 -41.1,0 -62.6,0 0,-4.3 0,-8.5 0,-12.8 0,-145.2 -0.1,-480.8 0.1,-626 0,-22 -8.5,-38.3 -29.1,-47.1 -28.3,-12.1 -61,7.6 -63.7,38.2 -0.4,4.7 -0.3,9.4 -0.3,14.1 0,143.5 0,477.5 0,621 0,4 0,7.9 0,12.5 -21.1,0 -41.4,0 -62.6,0 0,-4.8 0,-9.1 0,-13.3 0,-143.9 0,-478.2 0.1,-622 0,-20.1 -5.5,-37.3 -23.8,-47.8 -30.7,-17.3 -67,2.5 -70.2,38 -0.3,4 -0.2,8.1 -0.2,12.1 0,143.2 0,476.8 0,620 0,4 0,8 0,12.8 -20.6,0 -40.8,0 -62.3,0 0,-3.8 0,-7.7 0,-11.6 0,-144.8 0,-480.1 -0.1,-625 0,-26.1 -10.4,-42.3 -32.2,-50.2 -26.5,-9.6 -57.3,9.5 -60.4,37.5 -0.6,5.7 -0.6,11.4 -0.6,17.1 0,142.9 0,476.1 0,619 0,4.3 0,8.6 0,13.4 -21.3,0 -41.6,0 -62.9,0 0,-4.8 0,-9 0,-13.3 0,-143.9 -0.1,-478.1 0,-622 0,-16.7 -2.5,-32.2 -16.6,-43.2 -14.6,-11.4 -30.6,-14.3 -48.1,-7.1 -17.1,7.2 -25.9,20.5 -28.1,38.5 -0.6,4.3 -0.5,8.7 -0.5,13.1 0,143.5 0,477.4 0,621 0,4 0,8 0,12.8 -20.6,0 -40.9,0 -62.8,0 0,-3.9 0,-8.1 0,-12.2 0,-144.9 0,-480.2 -0.1,-625 0,-25 -9.7,-40.9 -29.7,-48.9 -26.7,-10.5 -57.2,6.1 -62.4,34.3 -1.2,6.2 -1.4,12.7 -1.4,19 -0.1,142.9 -0.1,476.1 -0.1,619 0,4.4 0,8.7 0,13.8 -20.7,0 -41,0 -62.6,0 0,-3.8 0,-7.7 0,-11.6 0,-145.2 -0.1,-480.9 0.1,-626.1 0,-22.2 -7.9,-39 -29.2,-48 -28.3,-11.9 -60.8,7.6 -63.6,38.3 -0.4,4.7 -0.3,9.4 -0.3,14.1 0,143.5 0,477.5 0,621 0,3.9 0,7.9 0,12.4 -21.1,0 -41.3,0 -62.6,0 0,-4.7 0,-9 0,-13.2 0,-143.9 0,-478.2 0.1,-622 0,-16 -3.2,-30.7 -15.6,-42 -14.3,-13 -31.2,-15.5 -48.7,-9 -17.9,6.7 -27.1,21.2 -29.5,39.9 -0.6,4.3 -0.4,8.7 -0.4,13.1 0,143.5 0,477.4 0,621 0,3.9 0,7.8 0,12.3 -20.8,0 -40.8,0 -62.3,0 0,-3.7 0,-7.6 0,-11.4 0,-144.9 -0.1,-480.2 0,-625.1 0,-17.3 -4.1,-32.4 -18.6,-43.4 -14.7,-11.1 -30.9,-12.6 -47.4,-5.4 -16.7,7.3 -25.8,20.7 -26.9,39.2 -0.3,4.6 -0.4,9.3 -0.4,14 0,142.9 0,476.2 0,619 0,4.3 0,8.6 0,13.1 -20.5,0 -39.8,0 -60.1,0 0,-4.8 0,-9.1 0,-13.3 0,-143.6 0.2,-477.5 -0.3,-621 0,-11 -2.5,-22.9 -7.3,-32.7 -8.4,-17.5 -29.1,-25.5 -48.8,-21.7 -18.6,3.6 -33.4,19.3 -36.1,38.5 -0.6,3.9 -1.1,8 -1.1,12 -0.1,210.6 -0.3,611.6 0,822.2 0.1,30.4 2.6,61 12.2,90.2 14.5,43.9 46.1,70.4 89.1,84.3 33.1,10.8 67.4,14 101.9,15.8 11.7,0.6 23.5,0.7 35.2,0.7 746.4,0 1492.8,0 2239.2,0.1 43.3,0 86.5,-1.2 129,-10.2 32.8,-7 63.7,-18.5 87.7,-43.6 22.3,-23.4 33.4,-52.3 39,-83.4 7.2,-40.6 12.2,-81.3 12.1,-122.7 -0.5,-186.1 -0.2,-562.7 -0.2,-748.8 z m -906.5,-1627.87 c 270.2,-164.45 540.3,-329 810.6,-493.21 41.9,-25.48 72.4,-59.67 85,-107.47 17,-63.85 3,-121.01 -42.2,-169.27 -34.8,-37.13 -79,-54.59 -129.6,-54.38 -34,0.15 -64.9,11.3 -93.9,28.93 -323.5,197.09 -647.2,394.03 -970.8,591.02 -2.8,1.72 -5.7,3.39 -8.7,5.17 -85.3,-53.98 -170.5,-107.85 -255.6,-161.74 -30.9,-19.52 -61.7,-39.13 -92.6,-58.5 -4.5,-2.79 -6.3,-5.11 -5.3,-11.03 19.3,-118 0,-230.14 -52.9,-336.73 -34.8,-70.21 -82.6,-130.62 -141.6,-182.26 -75.1,-65.8 -160.5,-112.87 -257.3,-137.38 -134.9,-34.11 -266.9,-25.47 -392.9,35.84 -122.9,59.87 -207.2,155.59 -253,284.64 -28.5,80.63 -34.5,163.35 -20.9,247.65 18.1,111.12 65.1,208.58 139.5,292.64 93.2,105.39 209.2,172.94 347,200.59 138.1,27.74 270,8.01 393.4,-61.5 18.6,-10.48 35.8,-23.42 54.2,-35.55 67.1,42.27 134.4,84.72 202.3,127.51 -61.3,37.34 -121.9,74.28 -182.5,111.2 -11.5,6.97 -23.2,13.58 -34.3,21.04 -5.3,3.61 -9,3.2 -14.1,-0.49 -45.5,-33.37 -95.3,-58.42 -149.1,-75.33 -72.4,-22.79 -146.6,-30.88 -222.3,-24.26 -102.5,8.97 -196.7,42.25 -282.9,97.94 -93.4,60.42 -166.5,139.7 -216.3,239.7 -46.8,94.2 -67.3,193.6 -56.8,299 10.2,103.6 50,194.8 117.4,273.5 70.3,82.3 159.5,134.9 264.2,161.2 114,28.6 226.8,22.8 337.3,-16.4 161.9,-57.4 282.8,-162.3 358.3,-317.3 41.2,-84.8 58.3,-175.1 53.3,-269.2 -1,-18 -4.2,-35.9 -7,-53.8 -1.3,-8.1 -0.2,-13 7.7,-17.7 116.5,-70.7 232.8,-141.7 349.1,-212.87 7.3,-4.53 12.3,-5.1 20.2,-0.14 324.5,205.11 649.3,409.81 973.8,614.81 52,32.8 106.7,40.4 164.1,18.2 122.2,-47.2 150.4,-210.2 50.7,-295.1 -21.8,-18.5 -47.1,-33.1 -71.4,-48.5 -260.8,-164.9 -521.7,-329.66 -782.6,-494.47 -2.5,-1.57 -4.9,-3.29 -8.2,-5.55 6.1,-3.77 11.3,-7.18 16.7,-10.45 z m 9095.3,-1476.11 -9069.8,5317.38 c -305.6,179.2 -684.2,179.2 -989.8,0 L 2771.73,8273.11 c -126.09,-73.95 -73.65,-267.05 72.53,-267.05 H 21825.9 c 146.2,0 198.7,193.13 72.6,267.06"
         style="fill:#ed127c;fill-opacity:1;fill-rule:nonzero;stroke:none"
         id="path36" /><path
         d="m 11754.5,10536.1 c -84,87.9 -187.2,125.8 -308.5,108.2 -80.1,-11.6 -146.4,-50.2 -195.3,-114.4 -61.1,-80.2 -76.7,-171 -49.7,-267.5 38.5,-137.5 163,-238.5 305.2,-249.3 71,-5.4 138.1,8.7 198.6,47.8 90.9,58.7 135.2,143.6 139.5,250.3 -1,13.6 -1.5,26.7 -3.1,39.6 -8.6,71.2 -37.5,133.8 -86.7,185.3"
         style="fill:#ed127c;fill-opacity:1;fill-rule:nonzero;stroke:none"
         id="path38" /><path
         d="m 648.32,375.801 -79.16,238.801 c -4.207,12.5 -8.387,26.8 -12.578,42.699 -4.187,15.898 -7.957,31 -11.297,45.301 -4.211,15.898 -7.98,32.699 -11.32,50.199 h -2.508 c -5.039,-17.5 -9.238,-34.301 -12.578,-50.199 -4.191,-14.301 -7.961,-29.403 -11.301,-45.301 -3.359,-15.899 -7.129,-30.199 -11.316,-42.699 L 415.832,375.801 Z M 433.418,864.699 c 10.051,28.403 29.738,42.703 59.074,42.703 h 80.438 c 30.976,0 50.683,-14.3 59.062,-42.703 L 911.016,75.4023 C 917.707,57 917.082,42.3008 909.121,31.4023 901.145,20.5 887.531,15.1016 868.273,15.1016 h -57.812 c -31.008,0 -50.703,14.1992 -59.074,42.6992 L 688.555,243.801 H 375.605 L 314.016,59.1016 c -8.371,-29.4024 -28.067,-44 -59.055,-44 h -57.813 c -19.296,0 -32.898,5.3984 -40.839,16.3007 -7.977,10.8985 -8.614,25.5977 -1.895,44 L 433.418,864.699"
         style="fill:#231f20;fill-opacity:1;fill-rule:nonzero;stroke:none"
         id="path40" /><path
         d="m 1159.84,854.602 c 0,35.199 17.16,52.8 51.53,52.8 h 57.81 c 34.35,0 51.53,-17.601 51.53,-52.8 v -701.2 h 333.04 c 35.2,0 52.79,-17.101 52.79,-51.101 V 67.4023 c 0,-34.9023 -17.59,-52.3007 -52.79,-52.3007 h -442.38 c -34.37,0 -51.53,17.6015 -51.53,52.8007 V 854.602"
         style="fill:#231f20;fill-opacity:1;fill-rule:nonzero;stroke:none"
         id="path42" /><path
         d="m 1940.3,854.602 c 0,35.199 17.17,52.8 51.54,52.8 h 57.81 c 34.35,0 51.52,-17.601 51.52,-52.8 v -701.2 h 333.05 c 35.2,0 52.79,-17.101 52.79,-51.101 V 67.4023 c 0,-34.9023 -17.59,-52.3007 -52.79,-52.3007 h -442.38 c -34.37,0 -51.54,17.6015 -51.54,52.8007 V 854.602"
         style="fill:#231f20;fill-opacity:1;fill-rule:nonzero;stroke:none"
         id="path44" /><path
         d="m 3571.62,375.801 -79.16,238.801 c -4.21,12.5 -8.4,26.8 -12.59,42.699 -4.18,15.898 -7.95,31 -11.29,45.301 -4.2,15.898 -7.97,32.699 -11.31,50.199 h -2.51 c -5.04,-17.5 -9.25,-34.301 -12.59,-50.199 -4.18,-14.301 -7.96,-29.403 -11.3,-45.301 -3.35,-15.899 -7.13,-30.199 -11.31,-42.699 l -80.43,-238.801 z m -214.91,488.898 c 10.06,28.403 29.75,42.703 59.07,42.703 h 80.45 c 30.98,0 50.69,-14.3 59.05,-42.703 L 3834.31,75.4023 c 6.7,-18.4023 6.06,-33.1015 -1.9,-44 -7.98,-10.9023 -21.58,-16.3007 -40.84,-16.3007 h -57.81 c -31.01,0 -50.7,14.1992 -59.08,42.6992 L 3611.86,243.801 H 3298.9 L 3237.32,59.1016 c -8.38,-29.4024 -28.07,-44 -59.06,-44 h -57.81 c -19.3,0 -32.91,5.3984 -40.85,16.3007 -7.98,10.8985 -8.6,25.5977 -1.89,44 l 279,789.2967"
         style="fill:#231f20;fill-opacity:1;fill-rule:nonzero;stroke:none"
         id="path46" /><path
         d="m 4021.55,457.5 c 0,66.199 11.52,127.703 34.56,184.699 23.04,57.004 55.09,106.203 96.16,147.703 41.04,41.5 89.65,73.899 145.78,97.399 56.13,23.5 117.71,35.199 184.74,35.199 36.87,0 71.01,-2.898 102.44,-8.801 31.42,-5.898 59.49,-13.199 84.21,-21.996 24.69,-8.801 46.07,-17.801 64.1,-27.004 18.01,-9.199 31.6,-17.199 40.85,-23.898 25.94,-20.102 29.72,-44.399 11.3,-72.899 l -22.62,-35.199 c -9.23,-14.203 -19.7,-22.402 -31.43,-24.504 -11.73,-2.097 -25.55,1.5 -41.45,10.703 -19.3,11.7 -45.26,23.899 -77.94,36.5 -32.67,12.5 -72.88,18.801 -120.65,18.801 -48.6,0 -91.74,-8.203 -129.44,-24.504 -37.71,-16.398 -69.35,-38.597 -94.9,-66.597 -25.56,-28.102 -45.05,-61 -58.45,-98.7 -13.41,-37.699 -20.11,-77.5 -20.11,-119.402 0,-46.898 7.75,-89.797 23.27,-128.801 15.48,-39 36.64,-72.199 63.46,-99.898 26.81,-27.602 58.22,-49.199 94.26,-64.699 36.02,-15.5 74.97,-23.301 116.88,-23.301 37.71,0 70.57,5.101 98.66,15.101 28.06,10.098 51.72,21.399 71,33.899 21.79,14.301 40.65,30.601 56.56,49 v 99.301 h -85.45 c -35.2,0 -52.8,17.5 -52.8,52.398 v 33.602 c 0,34.8 17.6,52.3 52.8,52.3 h 178.46 c 34.36,0 51.54,-17.601 51.54,-52.703 V 67.7031 c 0,-35.1015 -17.18,-52.6015 -51.54,-52.6015 h -31.41 c -16.77,0 -29.55,4 -38.34,11.8984 -8.79,8 -13.2,18.3008 -13.2,30.8008 v 21.4023 15 c 0,2.5977 0.41,4.6992 1.26,6.2969 h -2.52 C 4703.17,82.1016 4680.94,65.4023 4654.99,50.3008 4633.18,37.7031 4605.97,26.1992 4573.29,15.6992 4540.61,5.20313 4502.9,0 4460.19,0 4400.68,0 4344.56,11.1016 4291.77,33.3008 4238.99,55.5 4192.48,86.7031 4152.27,127 c -40.22,40.199 -72.07,88.301 -95.52,144.5 -23.47,56.102 -35.2,118.102 -35.2,186"
         style="fill:#231f20;fill-opacity:1;fill-rule:nonzero;stroke:none"
         id="path48" /><path
         d="m 5147.66,854.602 c 0,35.199 17.17,52.8 51.53,52.8 h 429.82 c 35.2,0 52.78,-17.402 52.78,-52.3 v -34.899 c 0,-34.004 -17.58,-51 -52.78,-51 H 5308.53 V 532.902 h 248.84 c 35.2,0 52.78,-17 52.78,-51.101 V 447 c 0,-34.898 -17.58,-52.398 -52.78,-52.398 h -248.84 v -241.2 h 340.58 c 35.21,0 52.81,-17.101 52.81,-51.101 V 67.4023 c 0,-34.9023 -17.6,-52.3007 -52.81,-52.3007 h -449.92 c -34.36,0 -51.53,17.6015 -51.53,52.8007 V 854.602"
         style="fill:#231f20;fill-opacity:1;fill-rule:nonzero;stroke:none"
         id="path50" /><path
         d="m 5941.93,90.5 c -10.05,9.1992 -16.97,19.5 -20.74,30.801 -3.78,11.301 0.63,25.301 13.2,42.101 l 27.64,40.2 c 10.06,14.3 20.74,22 32.06,23.199 11.3,1.301 24.91,-2.699 40.84,-11.899 7.55,-5 16.98,-11.3 28.29,-18.8 11.3,-7.602 24.69,-14.7 40.21,-21.403 15.49,-6.699 32.67,-12.597 51.53,-17.597 18.85,-5 39.15,-7.5 60.96,-7.5 41.88,0 74.56,9.398 98.02,28.3 23.44,18.801 35.19,43.297 35.19,73.5 0,28.399 -10.26,51.899 -30.79,70.301 -20.54,18.5 -46.31,35.199 -77.3,50.297 -31.01,15.102 -64.31,30.199 -99.91,45.301 -35.62,15.101 -68.92,33.101 -99.91,54 -31.01,20.898 -56.77,46.699 -77.29,77.301 -20.54,30.601 -30.79,68.898 -30.79,115 0,39.398 7.72,75 23.25,106.8 15.49,31.797 36.64,59.098 63.45,81.7 26.81,22.597 58.45,40 94.89,52.199 36.46,12.101 76.04,18.199 118.79,18.199 25.94,0 50.9,-2.297 74.77,-6.898 23.88,-4.602 45.65,-10.301 65.35,-17 19.68,-6.7 37.28,-14 52.79,-22 15.5,-7.903 27.84,-15.301 37.07,-22 26.79,-19.2 32.25,-43.102 16.34,-71.602 l -22.62,-41.5 c -9.23,-18.398 -20.11,-27.598 -32.68,-27.598 -12.58,0 -25.57,3.297 -38.96,10 -18.45,10.899 -40.02,21.797 -64.73,32.7 -24.73,10.898 -54.67,16.3 -89.86,16.3 -41.9,0 -75,-9.203 -99.29,-27.601 -24.3,-18.5 -36.44,-42.699 -36.44,-72.899 0,-27.601 10.25,-50.5 30.79,-68.5 20.52,-18 46.29,-34.203 77.28,-48.402 31,-14.199 64.32,-28.699 99.92,-43.301 35.62,-14.699 68.92,-32.5 99.93,-53.5 30.98,-20.898 56.74,-46.898 77.28,-77.898 20.53,-31 30.79,-70 30.79,-116.801 0,-36.098 -6.71,-70.301 -20.11,-102.5 -13.4,-32.297 -32.66,-60.301 -57.81,-84.1992 -25.14,-23.8985 -55.91,-42.6992 -92.37,-56.5 C 6304.52,6.90234 6262.82,0 6215.92,0 c -31.87,0 -62.02,3.10156 -90.5,9.40234 -28.49,6.29686 -54.47,14.09766 -77.92,23.30076 -23.47,9.1992 -44.21,19 -62.22,29.4961 -18.01,10.5039 -32.47,19.9024 -43.35,28.3008"
         style="fill:#231f20;fill-opacity:1;fill-rule:nonzero;stroke:none"
         id="path52" /><path
         d="m 7261.55,248.301 c -29.32,21.801 -32.24,45.601 -8.79,71.601 l 69.14,85.5 v 2.5 L 7217.57,435.5 c -35.2,7.602 -47.75,28.5 -37.71,62.902 l 10.06,31.399 c 5.85,16.699 14.24,27.801 25.14,33.301 10.89,5.398 24.3,4.8 40.21,-1.903 L 7358.34,521 l -6.29,109.301 c -1.69,17.601 1.89,31.199 10.7,40.898 8.78,9.602 21.98,14.403 39.58,14.403 h 35.19 c 16.75,0 29.52,-4.602 38.33,-13.801 8.8,-9.199 12.35,-22.598 10.67,-40.199 L 7480.25,521 l 101.79,40.199 c 16.75,6.703 30.99,7.5 42.74,2.5 11.72,-5 20.1,-15.898 25.14,-32.699 l 10.05,-31.398 c 10.87,-34.301 -0.85,-55.301 -35.19,-62.801 L 7516.7,407.902 v -2.5 l 69.11,-83 c 24.3,-26.8 21.79,-51.5 -7.53,-74.101 l -26.4,-18.899 c -29.33,-22.601 -53.21,-18 -71.63,13.797 L 7421.18,335 h -2.53 l -57.81,-90.5 c -19.27,-31.797 -43.56,-36.898 -72.88,-15.098 l -26.41,18.899"
         style="fill:#ed127c;fill-opacity:1;fill-rule:nonzero;stroke:none"
         id="path54" /><path
         d="m 8331.09,465 c 0,64.5 11.32,124.602 33.94,180.402 22.64,55.7 54.24,104.098 94.9,145.098 40.63,41.102 89,73.301 145.15,96.801 56.13,23.5 118.13,35.199 186.01,35.199 36.01,0 69.31,-3.098 99.91,-9.398 30.57,-6.301 58.01,-13.899 82.32,-22.7 24.3,-8.699 45.67,-18.402 64.09,-28.8 18.43,-10.5 33.52,-20 45.26,-28.301 25.13,-19.301 28.47,-43.602 10.05,-72.899 l -22.62,-36.5 c -16.77,-27.601 -40.65,-31.8 -71.63,-12.5 -19.3,12.5 -46.11,26.098 -80.45,40.797 -34.37,14.602 -74.58,22.004 -120.65,22.004 -48.6,0 -91.56,-8.203 -128.82,-24.504 -37.3,-16.398 -68.48,-38.597 -93.63,-66.597 -25.14,-28.102 -44.2,-60.801 -57.17,-98 -13.02,-37.301 -19.5,-76.5 -19.5,-117.5 0,-42 6.69,-82.2 20.11,-120.7 13.39,-38.5 32.88,-72.5 58.44,-101.8 25.55,-29.301 56.98,-52.801 94.28,-70.403 37.26,-17.597 79.79,-26.398 127.54,-26.398 25.15,0 48.81,2.699 71.03,8.199 22.18,5.402 42.5,11.902 60.95,19.402 18.41,7.598 34.96,16 49.64,25.2 14.65,9.199 27.02,17.597 37.07,25.097 29.33,21.801 53.62,18.903 72.9,-8.797 l 25.14,-33.902 c 20.11,-26.797 17.58,-51.098 -7.55,-72.898 C 9095.25,100.5 9079.09,89 9059.42,76.1016 9039.73,63 9016.69,50.9023 8990.28,39.6016 8963.9,28.3008 8934.15,18.8008 8901.06,11.3008 8867.95,3.80078 8831.73,0 8792.34,0 c -70.37,0 -133.85,12 -190.4,35.8008 -56.55,23.8984 -104.94,56.6015 -145.17,98.1012 -40.21,41.399 -71.22,90.598 -92.99,147.598 -21.8,57 -32.69,118.199 -32.69,183.5"
         style="fill:#231f20;fill-opacity:1;fill-rule:nonzero;stroke:none"
         id="path56" /><path
         d="m 9493.62,467.602 c 0,-45.301 7.33,-87.399 22.01,-126.403 14.65,-38.898 34.98,-72.699 60.95,-101.097 25.95,-28.5 56.97,-50.899 93.01,-67.301 36.01,-16.301 75.4,-24.5 118.13,-24.5 42.74,0 82.11,8.199 118.15,24.5 36.01,16.402 67.01,38.801 92.99,67.301 25.94,28.398 46.34,62.199 60.94,101.097 14.7,39.004 22,81.102 22,126.403 0,43.5 -7.3,83.898 -22,121.199 -14.6,37.301 -35,69.801 -60.94,97.398 -25.98,27.703 -56.98,49.203 -92.99,64.801 -36.04,15.402 -75.41,23.203 -118.15,23.203 -42.73,0 -82.12,-7.801 -118.13,-23.203 -36.04,-15.598 -67.06,-37.098 -93.01,-64.801 -25.97,-27.597 -46.3,-60.097 -60.95,-97.398 -14.68,-37.301 -22.01,-77.699 -22.01,-121.199 z m -167.14,0 c 0,63.597 11.3,123.097 33.92,178.398 22.64,55.301 54.45,103.5 95.52,144.5 41.04,41.102 89.65,73.301 145.8,96.801 56.11,23.5 118.13,35.199 186,35.199 67.87,0 129.86,-11.699 186.01,-35.199 56.07,-23.5 104.77,-55.699 145.77,-96.801 41.1,-41 72.9,-89.199 95.5,-144.5 22.6,-55.301 34,-114.801 34,-178.398 0,-65.403 -11.4,-126.602 -34,-183.5 -22.6,-57 -54.4,-106.7 -95.5,-149 -41,-42.3012 -89.7,-75.4028 -145.77,-99.3012 C 9917.58,12 9855.59,0 9787.72,0 c -67.87,0 -129.89,12 -186,35.8008 -56.15,23.8984 -104.76,57 -145.8,99.3012 -41.07,42.3 -72.88,92 -95.52,149 -22.62,56.898 -33.92,118.097 -33.92,183.5"
         style="fill:#231f20;fill-opacity:1;fill-rule:nonzero;stroke:none"
         id="path58" /><path
         d="m 10528,854.602 c 0,35.199 17.1,52.8 51.5,52.8 h 57.8 c 34.4,0 51.6,-17.601 51.6,-52.8 v -701.2 h 333 c 35.2,0 52.8,-17.101 52.8,-51.101 V 67.4023 c 0,-34.9023 -17.6,-52.3007 -52.8,-52.3007 h -442.4 c -34.4,0 -51.5,17.6015 -51.5,52.8007 V 854.602"
         style="fill:#231f20;fill-opacity:1;fill-rule:nonzero;stroke:none"
         id="path60" /><path
         d="m 11367.5,467.602 c 0,-45.301 7.4,-87.399 22,-126.403 14.7,-38.898 35,-72.699 61,-101.097 25.9,-28.5 56.9,-50.899 93,-67.301 36,-16.301 75.4,-24.5 118.1,-24.5 42.8,0 82.1,8.199 118.2,24.5 36,16.402 67,38.801 93,67.301 25.9,28.398 46.3,62.199 60.9,101.097 14.7,39.004 22,81.102 22,126.403 0,43.5 -7.3,83.898 -22,121.199 -14.6,37.301 -35,69.801 -60.9,97.398 -26,27.703 -57,49.203 -93,64.801 -36.1,15.402 -75.4,23.203 -118.2,23.203 -42.7,0 -82.1,-7.801 -118.1,-23.203 -36.1,-15.598 -67.1,-37.098 -93,-64.801 -26,-27.597 -46.3,-60.097 -61,-97.398 -14.6,-37.301 -22,-77.699 -22,-121.199 z m -167.1,0 c 0,63.597 11.3,123.097 33.9,178.398 22.6,55.301 54.5,103.5 95.5,144.5 41.1,41.102 89.7,73.301 145.8,96.801 56.1,23.5 118.2,35.199 186,35.199 67.9,0 129.9,-11.699 186,-35.199 56.2,-23.5 104.8,-55.699 145.8,-96.801 41.1,-41 72.9,-89.199 95.5,-144.5 22.6,-55.301 34,-114.801 34,-178.398 0,-65.403 -11.4,-126.602 -34,-183.5 -22.6,-57 -54.4,-106.7 -95.5,-149 -41,-42.3012 -89.6,-75.4028 -145.8,-99.3012 C 11791.5,12 11729.5,0 11661.6,0 c -67.8,0 -129.9,12 -186,35.8008 -56.1,23.8984 -104.7,57 -145.8,99.3012 -41,42.3 -72.9,92 -95.5,149 -22.6,56.898 -33.9,118.097 -33.9,183.5"
         style="fill:#231f20;fill-opacity:1;fill-rule:nonzero;stroke:none"
         id="path62" /><path
         d="m 12391.8,854.602 c 0,35.199 17.2,52.8 51.5,52.8 h 56.6 c 35.2,0 52.8,-17.601 52.8,-52.8 V 336.801 c 0,-60.301 17.8,-106.801 53.4,-139.5 35.6,-32.699 83.5,-49 143.9,-49 60.3,0 108.5,16.301 144.5,49 36,32.699 54,79.199 54,139.5 v 517.801 c 0,35.199 17.2,52.8 51.6,52.8 h 57.8 c 34.3,0 51.5,-17.601 51.5,-52.8 v -519 c 0,-50.301 -8.6,-96 -25.7,-137 C 13066.5,157.5 13042.2,122.301 13010.8,93 12979.4,63.6992 12941.6,40.9023 12897.6,24.5 12853.7,8.19922 12804.9,0 12751.2,0 c -54.4,0 -103.6,8.19922 -147.6,24.5 -44,16.4023 -81.7,39.1992 -113.1,68.5 -31.5,29.301 -55.8,64.5 -72.9,105.602 -17.2,41 -25.8,86.699 -25.8,137 v 519"
         style="fill:#231f20;fill-opacity:1;fill-rule:nonzero;stroke:none"
         id="path64" /><path
         d="m 13737.8,488.902 c 43.6,0 78,12.598 103.1,37.801 25.1,25.297 37.7,60.297 37.7,104.899 0,28.601 -5.6,53.601 -17,75.101 -11.3,21.399 -29.1,37.199 -53.4,47.297 -10.9,5 -23.7,8.801 -38.3,11.402 -14.7,2.5 -34.2,3.801 -58.5,3.801 H 13592 V 488.902 Z m -306.6,365.7 c 0,35.199 17.1,52.8 51.5,52.8 h 241.3 c 44.4,0 79,-1.902 103.7,-5.601 24.7,-3.801 46.7,-9.899 66,-18.301 45.2,-19.199 81.4,-49.598 108.7,-91.098 27.2,-41.402 40.8,-92.3 40.8,-152.703 0,-26.797 -3.3,-52.797 -10,-77.898 -6.7,-25.098 -16.4,-48.399 -28.9,-69.699 -12.6,-21.403 -28.1,-40.5 -46.5,-57.2 -18.5,-16.8 -39.4,-29.8 -62.9,-39 v -2.5 l 7.6,-11.3 c 2.5,-4.2 5.6,-9 9.4,-14.5 3.8,-5.403 7.7,-12.399 11.9,-20.7 l 147.1,-268.9997 c 10.9,-18.4023 12.8,-33.5 5.6,-45.1992 -7.1,-11.8008 -21.1,-17.6015 -42,-17.6015 h -67.9 c -27.7,0 -48.2,12.0976 -61.6,36.5 L 13747.9,348.102 H 13592 V 67.9023 c 0,-35.1992 -17.2,-52.8007 -51.5,-52.8007 h -57.8 c -34.4,0 -51.5,17.6015 -51.5,52.8007 V 854.602"
         style="fill:#231f20;fill-opacity:1;fill-rule:nonzero;stroke:none"
         id="path66" /><path
         d="m 14816.1,248.301 c -29.3,21.801 -32.3,45.601 -8.8,71.601 l 69.1,85.5 v 2.5 l -104.2,27.598 c -35.2,7.602 -47.8,28.5 -37.8,62.902 l 10.1,31.399 c 5.9,16.699 14.2,27.801 25.1,33.301 10.9,5.398 24.3,4.8 40.2,-1.903 l 103.1,-40.199 -6.3,109.301 c -1.7,17.601 1.9,31.199 10.7,40.898 8.8,9.602 22,14.403 39.6,14.403 h 35.2 c 16.7,0 29.5,-4.602 38.3,-13.801 8.8,-9.199 12.3,-22.598 10.7,-40.199 l -6.3,-110.602 101.8,40.199 c 16.8,6.703 31,7.5 42.7,2.5 11.8,-5 20.2,-15.898 25.2,-32.699 l 10,-31.398 c 10.9,-34.301 -0.8,-55.301 -35.2,-62.801 l -108,-28.899 v -2.5 l 69.1,-83 c 24.3,-26.8 21.8,-51.5 -7.5,-74.101 l -26.4,-18.899 c -29.4,-22.601 -53.3,-18 -71.7,13.797 l -59,91.801 h -2.6 l -57.8,-90.5 c -19.3,-31.797 -43.6,-36.898 -72.9,-15.098 l -26.4,18.899"
         style="fill:#ed127c;fill-opacity:1;fill-rule:nonzero;stroke:none"
         id="path68" /><path
         d="m 15885.7,465 c 0,64.5 11.3,124.602 33.9,180.402 22.6,55.7 54.2,104.098 94.9,145.098 40.6,41.102 89,73.301 145.2,96.801 56.1,23.5 118.1,35.199 185.9,35.199 36.1,0 69.4,-3.098 100,-9.398 30.5,-6.301 58,-13.899 82.3,-22.7 24.3,-8.699 45.6,-18.402 64.1,-28.8 18.4,-10.5 33.5,-20 45.2,-28.301 25.2,-19.301 28.5,-43.602 10.1,-72.899 l -22.7,-36.5 c -16.7,-27.601 -40.6,-31.8 -71.6,-12.5 -19.2,12.5 -46.1,26.098 -80.4,40.797 -34.4,14.602 -74.6,22.004 -120.7,22.004 -48.6,0 -91.5,-8.203 -128.8,-24.504 -37.3,-16.398 -68.5,-38.597 -93.6,-66.597 -25.1,-28.102 -44.2,-60.801 -57.2,-98 -13,-37.301 -19.5,-76.5 -19.5,-117.5 0,-42 6.7,-82.2 20.1,-120.7 13.4,-38.5 32.9,-72.5 58.5,-101.8 25.5,-29.301 56.9,-52.801 94.2,-70.403 37.3,-17.597 79.8,-26.398 127.6,-26.398 25.2,0 48.8,2.699 71,8.199 22.2,5.402 42.5,11.902 61,19.402 18.4,7.598 34.9,16 49.6,25.2 14.7,9.199 27,17.597 37.1,25.097 29.3,21.801 53.6,18.903 72.9,-8.797 l 25.1,-33.902 c 20.1,-26.797 17.6,-51.098 -7.5,-72.898 C 16649.8,100.5 16633.7,89 16614,76.1016 16594.3,63 16571.3,50.9023 16544.9,39.6016 16518.4,28.3008 16488.7,18.8008 16455.6,11.3008 16422.5,3.80078 16386.3,0 16346.9,0 c -70.4,0 -133.8,12 -190.4,35.8008 -56.5,23.8984 -104.9,56.6015 -145.2,98.1012 -40.2,41.399 -71.2,90.598 -92.9,147.598 -21.9,57 -32.7,118.199 -32.7,183.5"
         style="fill:#231f20;fill-opacity:1;fill-rule:nonzero;stroke:none"
         id="path70" /><path
         d="m 16938.8,854.602 c 0,35.199 17.2,52.8 51.6,52.8 h 56.6 c 35.1,0 52.7,-17.601 52.7,-52.8 V 336.801 c 0,-60.301 17.8,-106.801 53.5,-139.5 35.6,-32.699 83.5,-49 143.9,-49 60.3,0 108.5,16.301 144.5,49 36,32.699 54,79.199 54,139.5 v 517.801 c 0,35.199 17.2,52.8 51.5,52.8 h 57.9 c 34.3,0 51.5,-17.601 51.5,-52.8 v -519 c 0,-50.301 -8.6,-96 -25.8,-137 -17.1,-41.102 -41.4,-76.301 -72.9,-105.602 -31.4,-29.3008 -69.1,-52.0977 -113.1,-68.5 -44,-16.30078 -92.8,-24.5 -146.4,-24.5 -54.5,0 -103.7,8.19922 -147.7,24.5 -44,16.4023 -81.7,39.1992 -113.1,68.5 -31.4,29.301 -55.7,64.5 -72.9,105.602 -17.2,41 -25.8,86.699 -25.8,137 v 519"
         style="fill:#231f20;fill-opacity:1;fill-rule:nonzero;stroke:none"
         id="path72" /><path
         d="m 18175.5,769.203 h -240 c -35.2,0 -52.8,16.996 -52.8,51 v 34.899 c 0,34.898 17.6,52.3 52.8,52.3 h 640.9 c 34.4,0 51.6,-17.402 51.6,-52.3 v -34.899 c 0,-34.004 -17.2,-51 -51.6,-51 h -240 V 67.9023 c 0,-35.1992 -17.6,-52.8007 -52.8,-52.8007 h -56.5 c -34.4,0 -51.6,17.6015 -51.6,52.8007 V 769.203"
         style="fill:#231f20;fill-opacity:1;fill-rule:nonzero;stroke:none"
         id="path74" /><path
         d="m 19336.8,248.301 c -29.3,21.801 -32.2,45.601 -8.8,71.601 l 69.1,85.5 v 2.5 l -104.2,27.598 c -35.2,7.602 -47.8,28.5 -37.8,62.902 l 10.1,31.399 c 5.9,16.699 14.2,27.801 25.1,33.301 10.9,5.398 24.3,4.8 40.2,-1.903 l 103.1,-40.199 -6.3,109.301 c -1.7,17.601 1.9,31.199 10.7,40.898 8.8,9.602 22,14.403 39.6,14.403 h 35.2 c 16.7,0 29.5,-4.602 38.3,-13.801 8.8,-9.199 12.3,-22.598 10.7,-40.199 l -6.3,-110.602 101.8,40.199 c 16.8,6.703 31,7.5 42.8,2.5 11.7,-5 20.1,-15.898 25.1,-32.699 l 10,-31.398 c 10.9,-34.301 -0.8,-55.301 -35.1,-62.801 L 19592,407.902 v -2.5 l 69.1,-83 c 24.3,-26.8 21.8,-51.5 -7.5,-74.101 l -26.4,-18.899 c -29.4,-22.601 -53.3,-18 -71.7,13.797 l -59,91.801 h -2.6 l -57.8,-90.5 c -19.3,-31.797 -43.6,-36.898 -72.9,-15.098 l -26.4,18.899"
         style="fill:#ed127c;fill-opacity:1;fill-rule:nonzero;stroke:none"
         id="path76" /><path
         d="m 20427.7,90.5 c -10.1,9.1992 -17,19.5 -20.7,30.801 -3.8,11.301 0.6,25.301 13.2,42.101 l 27.6,40.2 c 10.1,14.3 20.7,22 32,23.199 11.4,1.301 25,-2.699 40.9,-11.899 7.6,-5 17,-11.3 28.3,-18.8 11.3,-7.602 24.7,-14.7 40.2,-21.403 15.5,-6.699 32.7,-12.597 51.5,-17.597 18.9,-5 39.2,-7.5 61,-7.5 41.9,0 74.6,9.398 98,28.3 23.5,18.801 35.2,43.297 35.2,73.5 0,28.399 -10.3,51.899 -30.8,70.301 -20.5,18.5 -46.3,35.199 -77.3,50.297 -31,15.102 -64.3,30.199 -99.9,45.301 -35.6,15.101 -68.9,33.101 -99.9,54 -31,20.898 -56.8,46.699 -77.3,77.301 -20.5,30.601 -30.8,68.898 -30.8,115 0,39.398 7.7,75 23.3,106.8 15.4,31.797 36.6,59.098 63.4,81.7 26.8,22.597 58.5,40 94.9,52.199 36.4,12.101 76,18.199 118.8,18.199 25.9,0 50.9,-2.297 74.7,-6.898 23.9,-4.602 45.7,-10.301 65.4,-17 19.7,-6.7 37.3,-14 52.8,-22 15.5,-7.903 27.8,-15.301 37.1,-22 26.8,-19.2 32.2,-43.102 16.3,-71.602 l -22.6,-41.5 c -9.3,-18.398 -20.1,-27.598 -32.7,-27.598 -12.5,0 -25.5,3.297 -38.9,10 -18.5,10.899 -40.1,21.797 -64.8,32.7 -24.7,10.898 -54.6,16.3 -89.8,16.3 -42,0 -75,-9.203 -99.3,-27.601 -24.3,-18.5 -36.5,-42.699 -36.5,-72.899 0,-27.601 10.3,-50.5 30.8,-68.5 20.6,-18 46.3,-34.203 77.3,-48.402 31,-14.199 64.3,-28.699 99.9,-43.301 35.6,-14.699 68.9,-32.5 99.9,-53.5 31,-20.898 56.8,-46.898 77.3,-77.898 20.6,-31 30.8,-70 30.8,-116.801 0,-36.098 -6.7,-70.301 -20.1,-102.5 -13.4,-32.297 -32.7,-60.301 -57.8,-84.1992 -25.1,-23.8985 -55.9,-42.6992 -92.4,-56.5 C 20790.3,6.90234 20748.6,0 20701.7,0 c -31.9,0 -62.1,3.10156 -90.5,9.40234 -28.5,6.29686 -54.5,14.09766 -77.9,23.30076 -23.5,9.1992 -44.2,19 -62.2,29.4961 -18.1,10.5039 -32.5,19.9024 -43.4,28.3008"
         style="fill:#231f20;fill-opacity:1;fill-rule:nonzero;stroke:none"
         id="path78" /><path
         d="m 21472.1,769.203 h -240 c -35.2,0 -52.8,16.996 -52.8,51 v 34.899 c 0,34.898 17.6,52.3 52.8,52.3 h 640.9 c 34.4,0 51.6,-17.402 51.6,-52.3 v -34.899 c 0,-34.004 -17.2,-51 -51.6,-51 h -240 V 67.9023 c 0,-35.1992 -17.6,-52.8007 -52.8,-52.8007 h -56.6 c -34.3,0 -51.5,17.6015 -51.5,52.8007 V 769.203"
         style="fill:#231f20;fill-opacity:1;fill-rule:nonzero;stroke:none"
         id="path80" /><path
         d="m 22341.8,388.402 -261.4,456.2 c -10.9,17.597 -12.8,32.398 -5.7,44.601 7.1,12.098 20.8,18.199 40.9,18.199 h 70.4 c 27.6,0 47.7,-13 60.3,-38.902 L 22367,644.801 c 6.6,-14.301 13.4,-28.301 20.1,-42.199 6.6,-13.801 12.5,-26.602 17.5,-38.301 5.9,-13.399 11.4,-26.399 16.4,-39 h 2.5 c 5,12.601 10.5,25.601 16.3,39 5.1,11.699 10.9,24.5 17.6,38.301 6.7,13.898 13.4,27.898 20.2,42.199 l 120.6,223.699 c 12.6,25.902 32.7,38.902 60.3,38.902 h 70.4 c 21,0 34.8,-6.101 41.5,-18.199 6.7,-12.203 5,-27.004 -5.1,-44.601 l -262.6,-456.2 V 67.9023 c 0,-35.1992 -17.2,-52.8007 -51.6,-52.8007 h -56.5 c -35.2,0 -52.8,17.6015 -52.8,52.8007 V 388.402"
         style="fill:#231f20;fill-opacity:1;fill-rule:nonzero;stroke:none"
         id="path82" /><path
         d="m 23015.4,854.602 c 0,35.199 17.2,52.8 51.5,52.8 h 57.9 c 34.3,0 51.5,-17.601 51.5,-52.8 v -701.2 h 333.1 c 35.1,0 52.7,-17.101 52.7,-51.101 V 67.4023 c 0,-34.9023 -17.6,-52.3007 -52.7,-52.3007 h -442.5 c -34.3,0 -51.5,17.6015 -51.5,52.8007 V 854.602"
         style="fill:#231f20;fill-opacity:1;fill-rule:nonzero;stroke:none"
         id="path84" /><path
         d="m 23795.9,854.602 c 0,35.199 17.2,52.8 51.5,52.8 h 429.8 c 35.2,0 52.9,-17.402 52.9,-52.3 v -34.899 c 0,-34.004 -17.7,-51 -52.9,-51 h -320.4 V 532.902 h 248.8 c 35.2,0 52.8,-17 52.8,-51.101 V 447 c 0,-34.898 -17.6,-52.398 -52.8,-52.398 h -248.8 v -241.2 h 340.6 c 35.1,0 52.8,-17.101 52.8,-51.101 V 67.4023 c 0,-34.9023 -17.7,-52.3007 -52.8,-52.3007 h -450 c -34.3,0 -51.5,17.6015 -51.5,52.8007 V 854.602"
         style="fill:#231f20;fill-opacity:1;fill-rule:nonzero;stroke:none"
         id="path86" /></g></g></svg>
