<?xml version="1.0" standalone="no"?>
<!DOCTYPE svg PUBLIC "-//W3C//DTD SVG 20010904//EN"
 "http://www.w3.org/TR/2001/REC-SVG-20010904/DTD/svg10.dtd">
<svg version="1.0" xmlns="http://www.w3.org/2000/svg"
 width="3289.000000pt" height="3289.000000pt" viewBox="0 0 3289.000000 3289.000000"
 preserveAspectRatio="xMidYMid meet">
<metadata>
Created by potrace 1.14, written by Peter Selinger 2001-2017
</metadata>
<g transform="translate(0.000000,3289.000000) scale(0.100000,-0.100000)"
fill="#000000" stroke="none">
<path d="M16305 25593 c-73 -9 -196 -36 -270 -60 -98 -32 -344 -154 -353 -175
-2 -5 -7 -8 -12 -8 -4 0 -196 -111 -426 -246 -231 -135 -437 -256 -459 -268
-22 -13 -70 -42 -108 -64 -37 -23 -70 -42 -73 -42 -2 0 -17 -8 -32 -19 -15
-10 -135 -81 -267 -158 -132 -77 -341 -200 -465 -273 -124 -73 -245 -144 -270
-158 -25 -14 -103 -60 -175 -102 -71 -42 -267 -157 -435 -255 -168 -98 -349
-205 -402 -237 -54 -32 -102 -58 -107 -58 -5 0 -11 -3 -13 -8 -1 -4 -50 -34
-108 -68 -58 -33 -253 -148 -435 -254 -181 -107 -366 -215 -410 -240 -44 -26
-132 -78 -195 -115 -63 -37 -128 -75 -145 -85 -16 -9 -55 -32 -85 -50 -30 -18
-69 -41 -85 -50 -17 -9 -161 -94 -320 -187 -160 -94 -306 -180 -325 -191 -19
-11 -227 -132 -461 -270 -235 -137 -439 -257 -455 -266 -16 -9 -36 -21 -44
-26 -13 -8 -197 -117 -280 -165 -48 -28 -385 -226 -400 -236 -8 -5 -105 -61
-215 -126 -110 -64 -522 -305 -915 -536 -393 -231 -731 -428 -750 -439 -19
-11 -60 -35 -90 -53 -47 -29 -445 -262 -535 -315 -71 -40 -297 -173 -710 -415
-242 -142 -476 -279 -520 -305 -44 -25 -99 -58 -122 -73 -24 -15 -45 -27 -49
-27 -3 0 -18 -8 -32 -19 -15 -10 -47 -29 -72 -43 -25 -14 -97 -56 -160 -93
-63 -38 -140 -83 -170 -100 -386 -225 -679 -400 -697 -417 -47 -44 -64 -136
-37 -203 15 -39 56 -83 92 -101 36 -18 522 -18 12719 -19 6974 0 12700 4
12723 8 59 12 114 69 130 135 24 102 -12 168 -127 236 -43 26 -85 51 -93 56
-8 5 -82 48 -165 96 -82 48 -193 113 -245 144 -52 31 -205 121 -340 200 -135
79 -344 202 -465 273 -121 71 -240 141 -265 155 -25 14 -73 43 -108 64 -34 21
-64 38 -66 38 -2 0 -33 17 -67 39 -58 34 -370 218 -444 261 -25 14 -275 161
-700 410 -44 26 -201 118 -350 205 -148 87 -282 165 -297 174 -15 9 -96 56
-180 105 -84 49 -169 99 -188 111 -31 20 -107 64 -295 172 -33 19 -64 38 -70
43 -5 4 -30 19 -55 32 -64 36 -87 49 -365 213 -137 81 -265 156 -283 166 -18
11 -136 80 -262 154 -126 74 -245 144 -263 154 -19 11 -65 38 -102 60 -37 23
-68 41 -70 41 -2 0 -72 41 -157 92 -84 50 -166 99 -183 108 -31 18 -758 444
-785 461 -8 5 -141 82 -295 172 -258 151 -1000 586 -1070 628 -16 10 -41 24
-55 32 -14 7 -218 127 -455 266 -236 140 -448 263 -470 276 -22 12 -168 97
-325 189 -157 93 -377 222 -490 288 -113 67 -268 158 -345 203 -77 45 -270
159 -430 252 -159 94 -407 239 -550 323 -143 84 -276 161 -295 172 -19 11
-126 74 -237 140 -302 178 -426 229 -633 262 -78 12 -263 17 -335 9z m1785
-1792 c94 -22 139 -63 167 -146 14 -44 16 -124 18 -627 2 -409 -1 -584 -9
-599 -6 -13 -24 -26 -40 -30 -22 -6 -33 -3 -52 16 l-23 23 -1 433 c0 238 -2
435 -5 437 -2 3 -20 6 -40 8 l-35 2 0 -439 0 -440 -23 -23 c-26 -26 -67 -25
-89 1 -10 12 -13 116 -13 454 0 242 -2 439 -5 440 -3 1 -22 2 -42 3 l-38 2 0
-441 c0 -408 -1 -443 -17 -457 -28 -24 -46 -26 -75 -11 -17 8 -28 22 -29 36
-1 12 -2 211 -4 442 -1 231 -3 423 -4 426 0 3 -18 5 -38 4 l-38 -1 -1 -427
c-1 -235 -4 -438 -8 -451 -4 -15 -17 -28 -36 -34 -26 -9 -34 -8 -56 11 l-26
23 0 437 c0 260 -3 438 -9 438 -5 1 -20 2 -34 2 -14 0 -28 -1 -33 -2 -4 0 -7
-199 -7 -442 l0 -440 -24 -18 c-26 -20 -64 -17 -83 7 -10 11 -14 118 -18 456
l-5 441 -37 0 c-21 1 -38 -2 -39 -5 0 -3 -2 -201 -2 -441 -2 -338 -5 -439 -15
-451 -22 -27 -63 -28 -89 -2 l-23 23 0 439 0 438 -40 0 c-30 0 -40 -4 -40 -15
0 -9 -1 -209 -3 -444 -2 -428 -2 -429 -24 -447 -25 -20 -65 -16 -85 8 -10 12
-13 111 -13 448 -1 238 -4 437 -9 441 -4 4 -23 8 -42 8 l-34 1 0 -437 c0 -401
-1 -438 -17 -457 -18 -21 -32 -26 -65 -23 -40 3 -42 29 -44 476 -1 237 -2 433
-3 436 -1 4 -39 4 -72 0 -4 -1 -6 -194 -6 -429 -1 -236 -3 -438 -7 -449 -16
-51 -100 -45 -113 8 -5 16 -8 218 -7 449 0 231 -2 420 -5 421 -3 0 -15 2 -26
4 -52 11 -50 27 -50 -422 0 -230 -2 -431 -4 -446 -6 -51 -74 -66 -109 -25 -9
11 -12 129 -14 454 l-3 439 -37 0 c-27 1 -38 -4 -39 -15 -1 -8 -2 -206 -3
-440 0 -234 -4 -430 -9 -437 -4 -6 -21 -16 -38 -22 -27 -9 -33 -8 -55 14 l-24
24 0 436 c0 239 -3 435 -7 436 -38 5 -63 5 -70 0 -4 -3 -8 -203 -8 -443 0
-480 1 -470 -60 -470 -61 0 -60 -10 -61 467 0 239 -4 438 -8 442 -4 4 -23 8
-42 8 l-34 1 0 -438 0 -439 -23 -23 c-26 -26 -67 -25 -89 1 -10 12 -13 115
-13 450 0 472 3 450 -55 449 l-25 -1 -3 -442 -2 -442 -26 -20 c-34 -27 -81
-12 -91 30 -5 16 -8 218 -7 449 0 231 -3 421 -8 421 -4 1 -19 2 -33 2 -14 0
-29 -1 -33 -2 -5 0 -8 -191 -7 -423 0 -233 -3 -435 -8 -450 -5 -16 -20 -30
-38 -37 -24 -8 -33 -7 -54 12 l-26 22 0 438 c0 337 -2 437 -12 438 -6 1 -25 2
-42 2 l-30 1 0 -442 c0 -397 -2 -443 -17 -458 -21 -22 -64 -21 -88 1 -19 17
-20 36 -22 458 l-3 440 -37 2 c-35 3 -38 1 -39 -24 0 -14 -1 -213 -2 -442 -2
-457 -1 -449 -63 -449 -62 0 -61 -6 -61 468 0 236 -3 434 -6 439 -4 6 -17 9
-29 8 -13 -1 -28 -3 -34 -4 -9 -1 -12 -114 -12 -428 0 -268 -4 -438 -11 -455
-17 -44 -93 -40 -107 6 -4 12 -7 280 -7 597 0 636 2 656 58 713 37 39 78 54
167 64 35 4 767 7 1628 7 1256 -1 1576 -4 1620 -14z m-2628 -2016 c201 -42
390 -163 503 -320 113 -158 154 -283 150 -469 l-2 -116 96 -57 c52 -32 111
-68 131 -80 21 -11 86 -51 146 -88 l109 -68 40 23 c22 13 165 102 317 199 153
97 286 181 296 186 10 6 42 26 72 46 50 33 148 94 509 321 149 93 191 105 276
80 172 -50 226 -258 101 -385 -28 -28 -165 -118 -476 -312 -220 -138 -291
-182 -356 -224 -38 -25 -79 -51 -90 -58 -10 -6 -68 -42 -127 -80 -98 -62 -107
-69 -90 -81 14 -11 324 -200 445 -272 282 -168 658 -402 684 -425 121 -110 89
-312 -60 -381 -87 -41 -151 -31 -266 39 -36 22 -78 47 -95 57 -16 10 -286 173
-598 364 -312 190 -570 346 -573 346 -3 0 -111 -66 -239 -147 l-233 -147 5
-87 c27 -423 -331 -803 -775 -822 -133 -6 -224 12 -351 70 -74 33 -127 71
-192 137 -70 71 -114 144 -152 253 -28 79 -31 100 -31 203 0 218 73 390 233
551 150 149 336 229 551 235 162 5 276 -24 404 -101 32 -19 61 -35 64 -35 15
0 262 164 255 170 -10 10 -194 124 -213 133 -8 4 -28 16 -45 26 -25 15 -33 16
-45 6 -25 -21 -131 -72 -195 -93 -195 -66 -439 -36 -634 75 -136 78 -271 223
-328 353 -38 85 -44 103 -58 172 -69 324 99 641 404 764 126 51 300 67 433 39z"/>
<path d="M15215 21481 c-113 -32 -181 -84 -239 -180 -45 -75 -58 -120 -58
-199 1 -256 215 -458 475 -448 103 4 140 16 219 69 111 75 168 176 174 311 4
99 -33 225 -82 273 -7 8 -19 22 -26 31 -17 23 -105 93 -143 114 -83 45 -219
57 -320 29z"/>
<path d="M16548 20413 c-67 -27 -93 -118 -52 -180 63 -98 221 -56 226 60 3 94
-85 156 -174 120z"/>
<path d="M15298 19954 c-259 -63 -415 -333 -327 -570 61 -164 210 -264 395
-264 203 0 407 167 443 362 32 176 -39 335 -192 432 -77 48 -215 66 -319 40z"/>
<path d="M1448 16645 c-2 -1 -44 -5 -93 -8 -50 -3 -97 -8 -105 -11 -8 -3 -33
-7 -55 -10 -50 -7 -95 -15 -117 -22 -9 -3 -25 -6 -35 -8 -49 -10 -186 -62
-265 -101 -307 -152 -521 -403 -642 -754 -20 -57 -39 -117 -41 -135 -3 -17
-10 -47 -15 -66 -15 -57 -37 -206 -45 -310 -6 -65 -6 -356 0 -415 27 -294 89
-515 220 -780 146 -296 323 -529 581 -765 48 -44 298 -275 320 -295 6 -5 57
-53 114 -105 142 -130 265 -252 332 -330 61 -71 188 -237 188 -245 0 -3 15
-26 33 -52 49 -73 55 -83 93 -163 81 -171 114 -314 119 -502 9 -430 -149 -644
-490 -664 -328 -20 -517 167 -541 536 -3 41 -6 161 -7 266 l-2 191 -28 36
c-54 71 -50 70 -457 71 -391 1 -410 -1 -461 -50 -49 -46 -52 -73 -46 -353 3
-141 8 -272 11 -291 3 -19 8 -53 11 -75 5 -40 10 -68 20 -115 3 -14 7 -34 9
-45 11 -54 40 -153 66 -224 156 -424 478 -714 920 -830 41 -11 91 -22 110 -25
19 -3 44 -7 55 -10 98 -20 442 -27 585 -12 326 34 612 158 820 352 226 213
377 526 426 884 3 25 8 53 10 64 7 38 17 225 17 326 0 366 -73 680 -232 1000
-45 90 -137 241 -174 286 -9 10 -45 55 -80 99 -132 165 -215 249 -642 650
-217 204 -466 459 -553 569 -127 159 -234 361 -282 531 -43 152 -57 354 -35
515 29 224 144 379 320 436 92 29 298 27 380 -4 116 -45 187 -108 241 -217 55
-112 73 -208 78 -425 3 -145 14 -175 78 -218 l42 -27 366 0 367 1 40 26 c58
39 77 84 77 193 0 94 -10 282 -18 325 -3 14 -7 48 -11 75 -3 28 -8 57 -10 65
-2 8 -6 26 -9 40 -36 198 -132 432 -244 590 -68 97 -216 240 -312 302 -144 94
-309 161 -475 194 -66 13 -139 24 -199 30 -67 6 -323 13 -328 9z"/>
<path d="M31147 16634 c-358 -40 -626 -153 -839 -353 -302 -283 -451 -701
-452 -1266 -1 -465 98 -807 353 -1220 127 -207 273 -372 555 -630 60 -55 137
-125 170 -156 34 -31 75 -68 91 -84 364 -332 514 -502 668 -761 110 -184 172
-418 170 -639 -5 -415 -188 -627 -537 -623 -249 4 -409 127 -470 364 -24 93
-28 143 -31 384 -2 143 -7 236 -14 255 -16 38 -62 79 -103 91 -18 5 -195 9
-393 9 -407 -1 -409 -2 -461 -77 l-28 -40 1 -207 c0 -201 6 -323 18 -412 56
-400 196 -704 425 -922 204 -195 429 -301 765 -361 153 -28 520 -28 665 0 14
2 39 7 55 10 17 3 39 7 50 9 11 2 55 13 98 25 399 111 700 385 856 781 28 72
55 158 67 210 8 36 13 61 19 89 27 119 42 312 39 520 -1 124 -5 237 -8 252 -4
16 -8 40 -10 55 -40 299 -170 640 -335 878 -151 219 -288 367 -702 755 -152
143 -440 429 -524 520 -199 217 -328 444 -392 692 -21 85 -27 129 -29 253 -2
134 1 179 20 278 20 107 68 199 142 273 50 50 75 66 140 90 72 26 90 29 209
29 112 0 139 -3 195 -24 221 -81 314 -266 319 -636 2 -146 18 -188 84 -225 42
-24 42 -24 387 -25 190 -1 360 3 378 7 45 12 98 62 113 105 11 35 8 307 -6
403 -2 19 -7 55 -10 80 -6 47 -11 79 -20 120 -3 14 -7 36 -10 50 -7 39 -50
179 -78 250 -85 225 -253 448 -432 575 -73 52 -215 131 -258 144 -18 5 -52 17
-77 26 -210 78 -554 110 -833 79z"/>
<path d="M3773 16567 c-21 -4 -51 -19 -67 -34 -63 -58 -58 204 -58 -3234 l0
-3138 23 -41 c13 -22 39 -50 58 -62 35 -21 44 -22 416 -23 224 -1 392 3 410 8
48 16 81 44 100 84 17 36 18 109 19 1313 1 1184 3 1277 19 1307 20 38 60 68
107 80 19 5 233 8 475 8 381 -1 444 -4 470 -17 39 -21 71 -56 85 -92 8 -22 11
-389 11 -1295 0 -1261 0 -1266 21 -1307 13 -27 35 -50 62 -65 41 -23 41 -23
431 -25 416 -1 431 1 484 49 54 50 51 -163 51 3213 0 2317 -3 3137 -11 3165
-7 21 -24 50 -39 64 -49 47 -85 51 -495 50 -424 -2 -418 -1 -472 -72 l-28 -36
-2 -1283 c-2 -1264 -3 -1284 -22 -1323 -22 -43 -61 -74 -103 -85 -15 -3 -228
-6 -472 -7 -384 0 -449 2 -475 16 -37 19 -69 52 -84 85 -8 18 -11 401 -12
1300 l-1 1275 -24 44 c-16 27 -39 51 -65 64 -38 19 -57 20 -407 21 -201 1
-384 -2 -405 -7z"/>
<path d="M7758 16567 c-49 -13 -89 -46 -108 -91 -17 -39 -18 -185 -18 -3171 0
-3349 -3 -3165 46 -3218 49 -54 -29 -51 1342 -52 876 -1 1274 2 1295 9 45 16
70 37 94 78 21 35 22 47 22 375 0 379 -1 389 -68 440 l-36 28 -721 2 c-397 1
-749 4 -784 6 -47 4 -70 11 -96 30 -70 54 -66 4 -66 923 0 807 0 829 20 869
13 27 34 49 62 65 l42 24 581 1 c636 1 615 -1 664 60 38 49 41 80 38 420 -2
372 -2 372 -79 422 l-41 28 -581 0 c-649 1 -626 -1 -676 72 l-25 37 -2 795 -3
796 23 40 c14 26 37 48 67 63 l44 22 752 0 c508 0 762 3 781 11 40 15 81 57
94 96 9 28 14 387 10 673 -1 50 -45 114 -94 136 -37 17 -115 18 -1293 18 -690
1 -1268 -3 -1286 -7z"/>
<path d="M11186 16565 c-45 -14 -71 -35 -97 -80 l-23 -39 0 -3140 c0 -3034 1
-3142 19 -3179 10 -22 36 -51 58 -65 l41 -27 800 0 c731 1 936 5 1036 20 196
31 382 86 496 146 59 31 154 89 164 99 3 3 28 23 55 44 162 129 307 345 379
568 27 82 46 151 52 188 3 14 7 32 9 40 3 8 7 33 10 55 4 22 8 51 11 65 2 14
8 57 12 95 9 91 9 3786 0 3890 -33 356 -147 661 -327 874 -143 171 -343 299
-576 370 -140 42 -227 59 -410 77 -113 11 -1672 10 -1709 -1z m1622 -941 c219
-46 350 -208 378 -469 9 -84 11 -3592 2 -3686 -21 -216 -111 -373 -254 -443
-101 -50 -155 -56 -459 -53 -273 2 -281 3 -312 25 -17 12 -40 41 -52 65 -20
42 -20 54 -20 2232 0 1374 3 2204 10 2226 11 44 61 96 104 109 50 15 525 10
603 -6z"/>
<path d="M15070 16560 c-33 -11 -52 -26 -75 -58 l-30 -44 0 -3157 0 -3158 28
-36 c55 -73 46 -71 482 -71 434 0 423 -2 479 67 l31 39 2 1284 2 1285 22 38
c12 22 39 49 63 62 l41 23 435 1 c239 0 452 -3 473 -7 47 -10 87 -39 112 -81
19 -31 19 -72 20 -1312 l0 -1280 23 -37 c13 -20 40 -47 60 -60 l37 -23 400 0
c454 1 453 0 503 79 l26 41 1 3130 c0 1722 -3 3146 -8 3165 -10 43 -43 82 -88
106 -31 16 -71 18 -404 18 -203 1 -389 -2 -413 -6 -56 -10 -95 -38 -118 -85
-17 -36 -18 -98 -20 -1313 -1 -871 -4 -1283 -12 -1300 -15 -36 -50 -70 -88
-86 -50 -21 -914 -21 -964 0 -42 17 -75 50 -90 91 -8 21 -11 382 -11 1299 0
1374 3 1294 -52 1353 -39 43 -72 46 -457 47 -299 1 -373 -2 -410 -14z"/>
<path d="M19087 16572 c-77 -20 -125 -69 -135 -139 -4 -27 -7 -1447 -6 -3158
0 -2994 1 -3111 19 -3148 10 -22 36 -51 58 -65 l41 -27 1269 0 c1325 -1 1311
-1 1359 42 51 46 52 56 54 398 2 183 -2 340 -7 366 -12 54 -58 104 -109 119
-20 6 -334 10 -779 10 -731 0 -746 1 -788 21 -25 12 -52 36 -65 57 l-23 37 -2
830 c-1 775 0 833 16 870 10 22 27 48 38 57 47 42 73 44 643 42 314 -1 562 3
586 8 22 5 53 21 69 35 54 51 56 66 56 429 0 347 0 353 -45 402 -52 58 -31 56
-661 57 -623 1 -610 0 -657 52 -46 50 -46 44 -46 848 -1 501 2 774 9 801 6 23
22 53 35 68 54 58 29 56 852 56 l755 0 42 25 c78 45 79 53 80 433 2 398 -2
414 -93 458 -35 17 -117 18 -1295 18 -691 1 -1263 0 -1270 -2z"/>
<path d="M23209 16569 c-70 -15 -123 -79 -135 -166 -4 -32 -8 -60 -9 -63 0 -3
-5 -32 -10 -65 -5 -33 -9 -62 -10 -65 0 -3 -5 -32 -9 -65 -5 -33 -10 -69 -12
-80 -4 -24 -8 -50 -29 -190 -9 -60 -20 -135 -25 -165 -5 -30 -13 -89 -19 -130
-6 -41 -16 -100 -21 -130 -5 -30 -12 -75 -15 -100 -3 -25 -9 -70 -15 -100 -5
-30 -12 -75 -15 -100 -3 -25 -8 -52 -10 -60 -2 -8 -7 -37 -10 -65 -13 -99 -15
-110 -20 -135 -3 -14 -7 -41 -9 -60 -3 -19 -9 -64 -15 -100 -6 -36 -12 -81
-15 -100 -2 -19 -7 -51 -10 -70 -3 -19 -8 -51 -11 -70 -2 -19 -7 -46 -9 -60
-2 -14 -7 -47 -11 -73 -4 -27 -8 -58 -11 -70 -2 -12 -6 -39 -9 -62 -4 -22 -8
-52 -10 -66 -3 -14 -7 -41 -9 -60 -3 -19 -7 -47 -10 -64 -2 -16 -7 -46 -10
-65 -3 -19 -14 -96 -26 -170 -11 -74 -23 -154 -26 -176 -2 -23 -7 -51 -9 -63
-2 -11 -11 -70 -20 -131 -9 -61 -18 -120 -20 -132 -3 -12 -9 -58 -16 -102 -6
-44 -12 -83 -14 -86 -2 -3 -6 -34 -10 -70 -4 -36 -11 -86 -15 -112 -5 -26 -12
-69 -15 -95 -3 -26 -10 -70 -15 -98 -5 -27 -12 -72 -16 -100 -4 -27 -8 -52 -9
-55 0 -3 -5 -31 -9 -64 -4 -32 -9 -68 -11 -80 -21 -128 -44 -280 -49 -321 -2
-16 -9 -59 -15 -95 -5 -36 -13 -85 -16 -110 -6 -47 -7 -52 -25 -165 -7 -38
-13 -83 -16 -100 -6 -44 -13 -97 -19 -125 -2 -14 -7 -43 -10 -65 -6 -40 -19
-130 -35 -240 -5 -33 -12 -78 -15 -100 -3 -22 -10 -65 -15 -95 -5 -30 -12 -75
-15 -100 -4 -25 -15 -99 -25 -165 -10 -66 -21 -138 -24 -160 -8 -53 -17 -115
-22 -140 -2 -11 -6 -42 -10 -70 -3 -27 -9 -68 -14 -90 -28 -121 4 -208 90
-247 30 -14 668 -19 716 -6 18 5 44 18 58 29 46 36 55 64 81 244 3 23 7 51 10
64 2 13 7 43 9 67 3 24 11 74 17 111 6 37 13 79 15 93 2 14 11 70 18 125 51
353 55 368 114 413 l35 27 547 0 547 0 36 -28 c20 -15 44 -41 51 -56 8 -15 27
-106 41 -202 14 -96 28 -185 30 -199 2 -14 11 -74 20 -135 18 -131 23 -163 29
-190 3 -18 11 -71 22 -150 16 -124 39 -168 105 -202 33 -17 64 -19 400 -18
314 1 368 3 394 17 72 38 101 108 85 199 -8 41 -17 103 -26 174 -2 17 -8 55
-14 85 -5 30 -12 71 -14 90 -3 19 -10 69 -16 110 -6 41 -16 104 -21 140 -5 36
-11 76 -14 90 -2 14 -7 45 -10 70 -3 25 -8 52 -10 60 -2 8 -6 38 -10 65 -3 28
-8 61 -10 75 -28 170 -51 324 -61 400 -2 19 -6 46 -9 60 -2 14 -7 39 -9 55 -2
17 -11 75 -20 130 -8 55 -17 116 -20 135 -2 19 -13 94 -25 165 -11 72 -29 193
-41 270 -12 77 -23 154 -26 170 -3 17 -7 44 -9 60 -2 17 -7 48 -10 70 -4 22
-8 51 -10 65 -2 14 -6 39 -9 55 -3 17 -10 62 -16 100 -5 39 -12 81 -14 95 -3
14 -12 77 -21 140 -9 63 -18 127 -21 143 -2 15 -6 42 -9 60 -3 17 -8 43 -10
57 -3 14 -7 41 -9 60 -6 42 -53 360 -62 410 -3 19 -7 49 -9 65 -2 17 -7 46
-10 65 -4 19 -9 51 -11 70 -7 50 -15 101 -29 190 -3 14 -13 86 -24 160 -11 74
-23 153 -26 175 -7 42 -8 52 -24 155 -6 36 -13 83 -16 105 -10 66 -26 168 -30
195 -7 43 -24 153 -30 195 -4 22 -12 81 -20 130 -8 50 -17 110 -20 134 -3 23
-7 55 -10 70 -9 53 -14 87 -20 131 -3 25 -10 70 -15 100 -5 30 -18 116 -29
190 -30 201 -31 210 -41 270 -5 30 -12 75 -15 100 -7 50 -18 75 -49 108 -51
57 -25 55 -738 56 -361 1 -671 -2 -689 -5z m698 -1464 c6 -32 14 -81 17 -109
4 -28 11 -76 16 -106 5 -30 12 -75 15 -100 7 -54 14 -96 20 -130 2 -14 7 -45
10 -70 3 -25 10 -70 15 -100 5 -30 12 -75 15 -100 3 -25 8 -56 10 -70 6 -34
13 -76 20 -130 3 -25 10 -70 15 -100 5 -30 12 -75 15 -100 3 -25 10 -70 15
-100 5 -30 12 -75 15 -100 3 -25 8 -56 10 -70 6 -30 10 -60 25 -165 15 -108
20 -137 25 -155 2 -8 7 -42 10 -75 4 -32 8 -62 10 -65 1 -3 6 -30 9 -61 4 -31
8 -65 10 -75 13 -76 19 -109 31 -197 4 -27 8 -56 10 -65 1 -10 6 -39 9 -67 4
-27 11 -75 16 -105 9 -50 24 -152 36 -240 2 -19 7 -46 10 -60 26 -129 11 -198
-54 -248 l-35 -27 -366 0 -366 0 -33 23 c-18 13 -42 42 -53 65 -23 44 -23 67
5 247 8 52 18 113 21 135 3 22 11 72 17 110 6 39 12 81 13 95 2 14 15 104 29
200 15 96 29 191 32 210 2 19 7 47 9 62 3 15 16 105 30 200 14 95 28 184 30
198 7 42 75 501 90 605 3 22 10 67 15 100 11 71 18 116 26 170 3 22 9 65 14
95 5 30 12 73 15 95 2 22 6 49 9 60 2 11 7 45 10 76 4 31 8 66 11 77 4 25 13
81 20 130 15 98 28 118 69 102 16 -5 24 -22 33 -65z"/>
<path d="M26312 16569 c-47 -9 -89 -40 -112 -81 l-21 -38 0 -3140 -1 -3141 21
-42 c11 -23 37 -53 58 -67 l37 -25 815 0 c800 1 935 4 1056 25 339 59 570 167
759 355 238 237 372 577 403 1030 8 123 8 3585 -1 3710 -19 289 -71 502 -171
710 -151 315 -403 525 -760 631 -44 14 -91 26 -105 29 -277 48 -270 48 -1172
49 -427 1 -790 -2 -806 -5z m1612 -945 c167 -35 280 -135 336 -300 48 -137 47
-109 45 -2046 -1 -1003 -5 -1839 -9 -1858 -45 -207 -116 -323 -237 -389 -98
-53 -159 -61 -465 -58 l-280 2 -37 25 c-20 14 -45 41 -54 60 -16 33 -17 174
-18 2230 -1 1207 3 2209 7 2227 11 42 52 90 92 108 44 20 525 19 620 -1z"/>
<path d="M5830 8514 c-208 -44 -383 -212 -446 -429 -28 -94 -25 -269 6 -365
61 -191 182 -318 369 -388 87 -33 243 -39 329 -13 63 20 157 65 167 81 3 5 14
14 24 20 16 8 18 5 18 -31 0 -51 22 -68 90 -69 43 0 55 4 70 24 17 21 19 45
18 294 0 242 -2 273 -17 289 -15 14 -40 17 -160 18 -185 2 -198 -4 -198 -91 0
-76 14 -88 107 -94 l78 -5 -1 -62 c-1 -69 -8 -81 -69 -123 -111 -77 -282 -92
-396 -36 -102 49 -176 131 -208 228 -72 217 7 436 191 529 73 37 191 49 290
29 47 -9 153 -52 200 -82 10 -6 52 29 71 60 40 63 40 81 2 118 -93 87 -356
136 -535 98z"/>
<path d="M8215 8523 c-95 -22 -154 -52 -208 -107 -69 -68 -91 -124 -91 -231
-1 -81 2 -95 26 -137 46 -77 110 -124 285 -209 210 -102 243 -134 233 -224 -7
-65 -80 -115 -169 -115 -64 0 -158 30 -220 70 -71 45 -96 40 -146 -33 -38 -55
-39 -59 -25 -85 22 -38 83 -77 180 -113 152 -57 355 -45 448 26 91 69 141 157
149 259 8 90 -16 161 -73 225 -55 61 -118 99 -274 166 -118 51 -199 111 -201
151 -4 66 14 108 60 136 29 18 51 22 121 22 75 1 92 -3 150 -30 88 -43 108
-48 126 -33 21 17 64 103 64 127 0 35 -65 80 -161 112 -62 21 -225 34 -274 23z"/>
<path d="M11605 8523 c-126 -26 -239 -86 -325 -172 -120 -121 -172 -260 -169
-446 5 -235 106 -417 291 -522 104 -60 196 -82 333 -79 137 3 248 36 351 105
91 61 99 83 53 151 -46 69 -64 71 -148 20 -232 -140 -491 -90 -603 117 -95
173 -69 396 59 526 78 79 161 108 302 104 92 -2 100 -5 192 -49 61 -30 104
-45 117 -41 22 5 70 77 77 114 7 35 -22 64 -98 102 -113 55 -169 69 -297 72
-63 1 -124 0 -135 -2z"/>
<path d="M12920 8519 c-173 -32 -347 -164 -422 -319 -19 -41 -39 -88 -42 -105
-3 -16 -9 -41 -12 -55 -3 -14 -6 -56 -8 -93 -11 -267 133 -501 370 -600 72
-31 105 -37 216 -44 296 -18 557 177 622 465 29 129 23 254 -17 365 -75 207
-241 346 -461 386 -60 11 -186 11 -246 0z m188 -193 c74 -8 174 -59 224 -115
80 -91 109 -179 104 -316 -2 -81 -7 -100 -39 -166 -56 -115 -115 -170 -225
-209 -87 -32 -204 -25 -288 16 -295 144 -302 607 -12 755 36 18 165 50 178 43
3 -1 29 -5 58 -8z"/>
<path d="M15401 8514 c-363 -79 -561 -465 -425 -827 95 -250 315 -392 594
-383 123 4 205 27 298 84 59 35 172 136 172 153 0 4 6 14 13 21 24 24 68 125
88 200 22 88 25 218 4 303 -50 213 -200 373 -414 442 -64 20 -251 24 -330 7z
m316 -220 c144 -69 230 -226 219 -404 -10 -164 -90 -289 -226 -354 -59 -28
-74 -31 -165 -31 -87 0 -107 3 -157 27 -252 118 -312 489 -111 692 45 45 140
93 204 102 24 3 45 7 46 8 10 9 147 -20 190 -40z"/>
<path d="M21613 8504 c-181 -52 -309 -162 -382 -329 -39 -88 -51 -161 -47
-285 6 -183 59 -309 181 -426 170 -163 459 -211 682 -113 24 11 45 19 48 19
13 0 116 73 129 92 23 33 20 54 -16 104 -45 63 -64 65 -147 14 -163 -98 -337
-106 -475 -21 -41 26 -109 98 -130 139 -91 177 -61 411 69 531 126 116 305
135 480 52 116 -56 121 -57 147 -28 38 42 61 93 54 121 -7 30 -63 69 -147 103
-139 56 -310 67 -446 27z"/>
<path d="M27510 8517 c-209 -48 -328 -228 -274 -417 30 -104 107 -172 289
-254 125 -56 209 -108 231 -142 22 -33 22 -103 -1 -137 -25 -39 -69 -59 -140
-64 -70 -6 -156 19 -232 67 -68 44 -94 40 -135 -17 -19 -27 -37 -55 -40 -63
-25 -68 172 -173 350 -186 140 -11 249 24 332 105 73 72 95 127 95 241 0 78
-4 102 -22 135 -29 54 -79 105 -139 141 -51 32 -72 42 -194 94 -148 64 -196
112 -187 187 13 119 178 160 334 84 72 -35 104 -44 119 -34 20 15 64 100 64
125 0 46 -47 80 -160 118 -80 26 -215 34 -290 17z"/>
<path d="M606 8488 c-25 -23 -31 -40 -335 -904 -39 -111 -71 -208 -71 -216 0
-32 35 -48 104 -48 91 0 101 12 154 175 l42 130 204 0 c112 0 207 -3 211 -7 4
-3 26 -64 51 -135 27 -79 52 -135 65 -145 16 -13 39 -18 89 -18 72 0 100 14
100 49 0 15 -77 246 -99 296 -5 11 -32 88 -61 170 -73 212 -120 344 -135 385
-8 19 -28 76 -45 125 -57 166 -56 165 -177 165 -61 0 -76 -4 -97 -22z m118
-233 c10 -57 44 -170 105 -349 17 -50 31 -93 31 -98 0 -4 -67 -8 -150 -8 -97
0 -150 4 -150 10 0 6 22 75 49 153 46 132 93 295 94 325 1 22 15 -1 21 -33z"/>
<path d="M1565 8490 c-18 -20 -19 -50 -19 -575 0 -525 1 -555 19 -575 18 -19
29 -20 340 -20 302 0 324 1 346 19 20 16 24 28 23 76 -1 91 5 89 -273 89
l-240 1 0 479 c0 565 8 526 -105 526 -61 0 -76 -3 -91 -20z"/>
<path d="M2605 8490 c-17 -19 -18 -53 -18 -575 0 -523 1 -556 18 -575 17 -19
30 -20 334 -20 174 0 326 3 338 6 28 8 42 49 37 105 -7 74 -4 73 -271 74
l-238 0 -2 478 c-2 566 6 527 -107 527 -60 0 -76 -3 -91 -20z"/>
<path d="M4509 8497 c-21 -16 -43 -59 -62 -122 -9 -27 -34 -102 -57 -165 -23
-63 -48 -135 -56 -160 -8 -25 -19 -54 -24 -65 -4 -11 -14 -36 -20 -55 -11 -32
-47 -135 -154 -437 -56 -158 -50 -173 69 -173 87 0 95 10 149 175 l43 130 209
0 209 0 45 -132 c25 -72 54 -141 64 -152 16 -17 31 -21 86 -21 69 0 101 14
106 45 2 16 -36 129 -166 495 -27 74 -86 241 -131 370 -57 164 -89 242 -106
258 -21 19 -35 22 -106 22 -49 -1 -89 -6 -98 -13z m183 -482 c34 -104 63 -196
65 -202 4 -10 -30 -13 -150 -13 l-156 0 55 163 c59 174 89 279 94 327 1 8 9
-7 17 -35 8 -27 42 -135 75 -240z"/>
<path d="M6885 8494 c-20 -15 -20 -27 -20 -580 0 -548 1 -566 19 -580 16 -11
80 -14 348 -14 315 0 329 1 348 20 20 20 23 32 20 85 -2 47 -9 61 -33 72 -12
5 -127 9 -254 8 l-233 -1 -1 26 c-1 30 -1 283 0 290 1 3 83 6 182 6 178 0 182
1 200 23 27 33 26 114 -1 141 -20 20 -88 25 -312 20 -59 -1 -68 1 -69 17 0 10
-1 81 -2 158 l0 140 214 1 c263 2 245 0 267 22 15 15 18 31 16 71 -5 95 10 91
-353 91 -266 -1 -319 -3 -336 -16z"/>
<path d="M14055 8494 c-19 -14 -20 -28 -20 -573 0 -535 1 -560 19 -580 19 -21
27 -21 346 -21 319 0 327 1 346 21 14 15 18 35 18 75 -1 90 5 88 -274 89
l-240 0 0 483 c0 564 9 522 -107 522 -45 -1 -75 -6 -88 -16z"/>
<path d="M16540 8490 c-20 -20 -20 -32 -20 -406 1 -212 5 -409 10 -437 22
-113 109 -232 210 -286 68 -36 166 -59 253 -59 238 0 410 117 468 318 17 57
22 824 6 855 -15 31 -27 35 -97 35 -113 -1 -105 31 -106 -418 -1 -243 -6 -402
-13 -427 -14 -52 -62 -110 -114 -138 -35 -18 -58 -22 -137 -22 -80 0 -102 4
-139 23 -24 13 -49 28 -55 35 -28 28 -54 74 -62 107 -4 19 -8 204 -9 410 -1
206 -4 385 -8 396 -9 26 -33 34 -109 34 -45 0 -63 -5 -78 -20z"/>
<path d="M17925 8491 c-18 -21 -19 -42 -19 -576 0 -646 -9 -595 106 -595 109
0 108 -2 108 240 0 110 3 200 8 201 4 1 49 2 100 3 72 1 96 -2 106 -14 7 -8
34 -58 61 -110 84 -164 145 -274 166 -296 18 -19 31 -22 102 -22 87 0 107 8
107 41 0 17 -99 207 -219 420 -11 21 -21 40 -21 42 0 2 12 11 28 19 142 73
207 309 130 473 -32 70 -103 136 -174 163 -55 22 -76 24 -314 28 -251 4 -255
4 -275 -17z m475 -184 c19 -9 43 -22 52 -30 45 -36 63 -151 36 -217 -37 -85
-93 -109 -265 -109 l-103 0 0 183 c0 100 2 185 5 187 2 3 58 5 122 4 83 -2
128 -7 153 -18z"/>
<path d="M22605 8497 c-19 -15 -20 -27 -20 -429 0 -411 0 -413 24 -478 71
-192 241 -294 476 -286 240 9 405 139 444 350 7 37 11 207 11 438 0 445 7 418
-109 418 -72 0 -100 -13 -102 -48 -1 -9 -2 -188 -3 -397 -2 -360 -3 -382 -23
-425 -53 -116 -188 -167 -340 -128 -63 16 -137 87 -153 148 -9 31 -13 164 -14
432 -1 300 -4 390 -14 400 -19 19 -152 23 -177 5z"/>
<path d="M23864 8492 c-32 -26 -34 -113 -2 -145 22 -22 28 -23 196 -22 l172 0
0 -482 c0 -565 -9 -523 108 -523 115 0 107 -40 108 519 1 262 2 478 3 481 1 3
80 5 176 5 207 0 208 1 208 91 0 99 29 94 -497 94 -412 0 -453 -2 -472 -18z"/>
<path d="M28255 8490 c-38 -42 -19 -159 28 -161 12 -1 90 -3 172 -4 83 -1 155
-3 160 -4 8 -1 11 -154 11 -481 0 -561 -8 -520 106 -520 117 0 108 -42 108
523 l0 482 172 0 c207 0 218 4 218 89 0 39 -5 58 -20 74 l-21 22 -458 0 c-442
0 -459 -1 -476 -20z"/>
<path d="M29436 8489 c-21 -30 -35 0 199 -409 l152 -265 -1 -225 c-2 -220 -1
-225 21 -247 18 -19 33 -23 88 -23 107 0 105 -5 105 269 l0 228 180 314 c99
172 180 323 180 336 0 32 -28 43 -109 43 -58 0 -74 -4 -95 -22 -32 -28 -186
-311 -244 -448 -17 -41 -18 -41 -29 -18 -6 12 -27 57 -47 98 -35 74 -93 183
-162 307 -19 35 -43 67 -54 73 -10 5 -52 10 -94 10 -65 0 -77 -3 -90 -21z"/>
<path d="M30706 8494 c-9 -8 -17 -18 -17 -22 -1 -4 -3 -252 -4 -552 -2 -530 0
-573 29 -592 6 -4 158 -8 337 -8 377 0 359 -5 359 93 0 58 -15 86 -48 88 -9 1
-118 2 -240 3 l-224 1 -1 488 c-2 564 8 517 -108 517 -48 0 -72 -5 -83 -16z"/>
<path d="M31745 8494 c-20 -15 -20 -27 -21 -562 0 -301 4 -558 8 -572 5 -13
15 -28 21 -32 7 -4 159 -8 338 -8 370 0 365 -1 372 75 5 52 -9 90 -36 102 -12
5 -127 9 -255 8 l-232 0 2 160 3 160 177 1 c211 0 218 3 218 91 0 87 -11 93
-182 94 -79 1 -160 0 -180 -1 l-38 -2 0 159 0 158 230 0 c264 0 262 0 265 82
2 48 -8 82 -29 95 -6 4 -153 8 -326 8 -265 -1 -318 -3 -335 -16z"/>
<path d="M9823 8197 c-22 -18 -23 -23 -18 -108 3 -49 2 -89 -2 -89 -4 0 -43
14 -86 31 -73 28 -81 29 -102 15 -13 -9 -29 -33 -34 -53 -24 -84 -12 -98 102
-128 37 -10 70 -21 72 -25 2 -3 -7 -19 -21 -36 -14 -16 -38 -45 -54 -64 -17
-19 -30 -45 -30 -57 0 -40 83 -100 124 -89 12 3 40 34 66 75 25 39 48 70 51
71 3 0 23 -26 44 -57 60 -92 72 -103 105 -92 15 6 44 25 64 43 33 31 35 37 26
61 -6 15 -31 51 -55 80 -25 29 -45 56 -45 62 0 5 21 14 48 21 26 7 64 17 84
23 53 14 63 37 44 103 -22 74 -43 82 -132 49 -38 -13 -76 -27 -85 -30 -14 -4
-16 6 -12 84 4 75 2 92 -12 106 -9 9 -24 17 -33 18 -74 5 -87 3 -109 -14z"/>
<path d="M19910 8208 c-30 -11 -39 -46 -34 -132 3 -42 2 -76 -3 -76 -4 0 -41
13 -81 30 -88 36 -112 31 -136 -29 -34 -87 -19 -108 102 -137 39 -9 72 -20 72
-23 0 -3 -23 -33 -51 -66 -70 -85 -72 -100 -18 -147 62 -53 93 -51 131 10 12
21 26 42 30 47 35 45 50 59 54 50 2 -5 23 -39 47 -75 52 -80 77 -87 137 -40
66 52 63 70 -32 179 l-39 45 69 18 c139 35 144 41 118 124 -25 80 -42 84 -155
39 -36 -14 -67 -25 -70 -25 -3 0 -4 42 -3 94 4 90 3 95 -20 107 -26 15 -87 18
-118 7z"/>
<path d="M25924 8198 c-25 -20 -26 -23 -21 -109 3 -49 2 -89 -2 -89 -5 0 -39
13 -77 28 -100 42 -123 33 -149 -52 -14 -46 -14 -48 8 -70 14 -14 51 -30 95
-41 40 -9 72 -22 72 -29 0 -6 -10 -22 -22 -36 -46 -50 -78 -99 -78 -118 0 -24
56 -81 87 -88 38 -10 57 4 102 76 24 38 48 70 52 70 4 0 22 -24 40 -52 54 -88
77 -108 108 -97 43 15 91 64 91 92 0 15 -21 50 -56 93 l-56 68 33 9 c144 36
174 53 164 91 -32 121 -47 130 -154 86 -40 -16 -77 -30 -82 -30 -4 0 -6 40 -3
89 4 73 2 91 -11 105 -9 9 -22 16 -28 17 -7 0 -29 2 -49 4 -27 2 -46 -3 -64
-17z"/>
</g>
</svg>
